<svg width="213" height="213" viewBox="0 0 213 213" fill="none" xmlns="http://www.w3.org/2000/svg">
<g clip-path="url(#clip0_494_312)">
<path d="M98.8114 200.14C151.897 200.14 194.931 157.106 194.931 104.02C194.931 50.9348 151.897 7.90039 98.8114 7.90039C45.7258 7.90039 2.69141 50.9348 2.69141 104.02C2.69141 157.106 45.7258 200.14 98.8114 200.14Z" fill="#FC95A7"/>
<path d="M212.301 106.86C212.301 122.76 199.411 135.65 183.511 135.65H135.101V184.06C135.101 199.96 122.211 212.85 106.311 212.85C90.4105 212.85 77.5206 199.96 77.5206 184.06V135.65H29.1005C13.2005 135.65 0.310547 122.76 0.310547 106.86C0.310547 90.9601 13.2005 78.0701 29.1005 78.0701H77.5105V29.6601C77.5105 13.7601 90.4006 0.870117 106.301 0.870117C122.201 0.870117 135.091 13.7601 135.091 29.6601V78.0701H183.501C199.411 78.0701 212.301 90.9601 212.301 106.86Z" fill="#7BDAF1"/>
<path opacity="0.58" d="M212.28 106.88C212.28 122.77 199.4 135.65 183.51 135.65H135.08V184.08C135.08 199.97 122.2 212.85 106.31 212.85H105.48C89.5903 212.85 76.7103 199.97 76.7103 184.08V135.65H29.0903C13.2003 135.65 0.320312 122.77 0.320312 106.88V106.86C0.320312 90.9696 13.2003 78.0896 29.0903 78.0896H76.7103V29.6597C76.7103 13.7697 89.5903 0.889648 105.48 0.889648H105.5C121.39 0.889648 134.27 13.7697 134.27 29.6597V78.0896H183.49C199.39 78.0796 212.28 90.9697 212.28 106.88Z" fill="#408FAC"/>
<path d="M74.1884 123.063C83.9574 116.741 86.7515 103.696 80.4293 93.9274C74.1071 84.1584 61.0627 81.3643 51.2937 87.6865C41.5248 94.0086 38.7306 107.053 45.0528 116.822C51.375 126.591 64.4194 129.385 74.1884 123.063Z" fill="white"/>
<path d="M68.2494 113.888C72.9507 110.845 74.2954 104.568 71.2529 99.8665C68.2103 95.1651 61.9326 93.8204 57.2313 96.863C52.5299 99.9056 51.1852 106.183 54.2278 110.885C57.2704 115.586 63.5481 116.931 68.2494 113.888Z" fill="#1C5265"/>
<path d="M153.569 102.637C163.338 96.315 166.132 83.2706 159.81 73.5016C153.488 63.7327 140.444 60.9385 130.675 67.2607C120.906 73.5829 118.111 86.6273 124.434 96.3963C130.756 106.165 143.8 108.959 153.569 102.637Z" fill="white"/>
<path d="M147.63 93.4613C152.332 90.4187 153.676 84.1411 150.634 79.4397C147.591 74.7384 141.313 73.3937 136.612 76.4363C131.911 79.4788 130.566 85.7565 133.609 90.4578C136.651 95.1592 142.929 96.5039 147.63 93.4613Z" fill="#1C5265"/>
<path d="M103.772 116.57L113.092 114.17C114.282 113.86 115.002 112.65 114.692 111.46L108.462 87.2697C108.152 86.0797 106.942 85.3597 105.752 85.6697L96.4318 88.0697C95.2418 88.3797 94.5218 89.5897 94.8318 90.7797L101.062 114.97C101.372 116.16 102.582 116.88 103.772 116.57Z" fill="white"/>
<path d="M95.041 137.47L135.491 127.06C135.491 127.06 137.351 149.28 120.741 153.56C104.131 157.84 95.041 137.47 95.041 137.47Z" fill="white"/>
<path d="M67.7809 88.3604C61.7609 88.3604 56.4209 91.2404 53.0409 95.6904C51.5309 93.9104 52.2109 91.4404 52.2109 91.4104C52.3709 90.8504 52.0509 90.2803 51.4909 90.1203C50.9309 89.9603 50.3609 90.2803 50.2009 90.8403C50.0909 91.2203 49.2109 94.6204 51.5909 97.2204C51.6709 97.3104 51.7509 97.3904 51.8409 97.4704C51.5409 97.9804 51.2609 98.5003 51.0109 99.0403C50.6109 99.0203 50.1709 98.9503 49.7209 98.7803C47.4509 97.9203 46.9309 95.3004 46.9209 95.2704C46.8109 94.7004 46.2709 94.3304 45.7009 94.4404C45.1309 94.5504 44.7609 95.0904 44.8709 95.6604C44.9409 96.0504 45.6809 99.4803 48.9809 100.73C49.4009 100.89 49.8109 100.99 50.2109 101.05C49.6109 102.88 49.2809 104.82 49.2809 106.85C49.2809 117.07 57.5609 125.35 67.7809 125.35C78.0009 125.35 86.2809 117.07 86.2809 106.85C86.2809 96.6304 78.0009 88.3604 67.7809 88.3604Z" fill="#414151"/>
<path d="M67.631 102.56C69.761 100.43 73.201 100.43 75.331 102.56C77.461 104.69 77.461 108.13 75.331 110.26C73.201 112.39 69.761 112.39 67.631 110.26C65.511 108.14 65.511 104.69 67.631 102.56Z" fill="white"/>
<path d="M61.8406 112.081C62.9406 110.981 64.7206 110.981 65.8206 112.081C66.9206 113.181 66.9206 114.961 65.8206 116.061C64.7206 117.161 62.9406 117.161 61.8406 116.061C60.7406 114.961 60.7406 113.181 61.8406 112.081Z" fill="white"/>
<path d="M139.531 68.7402C145.551 68.7402 150.901 71.6202 154.271 76.0702C155.791 74.2902 155.101 71.8202 155.101 71.7902C154.941 71.2302 155.261 70.6602 155.821 70.5002C156.381 70.3402 156.951 70.6602 157.111 71.2202C157.221 71.6002 158.101 75.0002 155.721 77.6002C155.641 77.6902 155.561 77.7702 155.471 77.8502C155.771 78.3602 156.051 78.8802 156.301 79.4202C156.701 79.4002 157.141 79.3302 157.591 79.1602C159.861 78.3002 160.381 75.6802 160.391 75.6502C160.501 75.0802 161.041 74.7102 161.611 74.8202C162.181 74.9302 162.551 75.4702 162.441 76.0402C162.371 76.4302 161.631 79.8602 158.331 81.1102C157.911 81.2702 157.501 81.3702 157.101 81.4302C157.701 83.2602 158.031 85.2002 158.031 87.2302C158.031 97.4502 149.751 105.73 139.531 105.73C129.311 105.73 121.031 97.4502 121.031 87.2302C121.031 77.0202 129.311 68.7402 139.531 68.7402Z" fill="#414151"/>
<path d="M139.68 82.9403C137.55 80.8103 134.11 80.8103 131.98 82.9403C129.85 85.0703 129.85 88.5103 131.98 90.6403C134.11 92.7703 137.55 92.7703 139.68 90.6403C141.8 88.5103 141.8 85.0603 139.68 82.9403Z" fill="white"/>
<path d="M145.471 92.4607C144.371 91.3607 142.591 91.3607 141.491 92.4607C140.391 93.5607 140.391 95.3407 141.491 96.4407C142.591 97.5407 144.371 97.5407 145.471 96.4407C146.571 95.3307 146.571 93.5507 145.471 92.4607Z" fill="white"/>
</g>
<defs>
<clipPath id="clip0_494_312">
<rect width="213" height="213" fill="white"/>
</clipPath>
</defs>
</svg>
