<svg width="1291" height="640" viewBox="0 0 1291 640" fill="none" xmlns="http://www.w3.org/2000/svg">
<g clip-path="url(#clip0_494_198)">
<path d="M1291 0H0V640H1291V0Z" fill="#FC95A7"/>
<path opacity="0.18" d="M1291 0H0V640H1291V0Z" fill="#408FAC"/>
<g clip-path="url(#clip1_494_198)">
<path fill-rule="evenodd" clip-rule="evenodd" d="M206.84 408.9C208.76 412.81 207.97 419.47 207.97 424.54C207.97 428.66 209.28 437.61 206.73 440.12C204.76 441.51 202.65 439.09 199.94 440.9C198.24 442.03 197.37 445.32 198.33 448.23C199.98 453.26 207.78 450.71 212.96 450.64C217.7 450.58 225.8 452.85 228.27 449.48C229.67 447.58 229.68 443.97 228.4 442.03C226.67 439.4 224.41 440.7 220.89 440.42C219.12 435.87 219.68 420.01 219.96 413.74C221.46 415.29 221.7 416.49 222.52 418.51L233.34 443.14C234.88 446.76 235.45 450.83 240.29 451.01C256.35 451.59 254.75 451.94 254.73 436.7C254.72 430.4 253.63 413.41 255.74 409.07C258.64 408.37 260.96 410.19 263.2 408.36C264.89 406.97 265.51 404.03 264.7 401.66C262.83 396.18 255.09 398.71 249.97 398.84C244.93 398.96 237.12 396.36 234.63 400.58C233.36 402.73 233.59 405.9 234.88 407.72C237.06 410.8 239.47 407.99 241.85 409.27C243.65 411.55 243.05 431.07 242.69 435.48C240.31 429.66 237.73 423.4 235.24 417.42C225.56 394.14 229.65 398.11 216 398.77C211.41 398.99 207.35 397.94 203.31 398.15C199.25 398.37 197.25 401.24 198.06 405.5C199.06 410.67 202.59 408.5 206.84 408.9Z" fill="#51215D"/>
<path fill-rule="evenodd" clip-rule="evenodd" d="M559.38 420.61C560.84 419.73 562.97 419.61 563.78 418.02C564.63 416.35 564.19 413.5 563.18 412.42C560.8 409.87 554.23 412 550.53 411.88C546.13 411.74 541.24 409.91 539.34 413.88C538.6 415.42 538.58 418.52 539.5 419.86C540.62 421.49 543.04 421.01 545.17 421.32C546.89 423.8 557.55 448.86 557.65 451.41C557.8 455.11 554.55 458.72 550.55 457.96C549.8 455.25 550.63 453.53 548.42 452C542.82 448.14 534.81 455.02 539.56 462.31C544.05 469.21 556.22 468.45 562.57 463.42C568.87 458.42 571.09 452.2 574.44 443.34C576.39 438.17 581.21 424.14 583.39 421.05C585.44 420.94 587.38 421.5 588.78 420.18C589.72 419.29 593.57 410.21 582.48 411.43C577.38 411.99 575.79 411.28 571.32 411.25C566.91 411.22 566.04 414.13 566.9 418.38C568.22 419.59 569.07 419.59 570.61 420.55C570.63 423.04 566.09 437.2 564.86 439.07C563.54 434.17 559.66 425.26 559.38 420.61Z" fill="#51215D"/>
<path fill-rule="evenodd" clip-rule="evenodd" d="M323.97 443.9C323 440.57 319.86 442.29 317.79 441.36C314.34 436.51 319.52 415.66 315.86 411.72C313.66 410.63 310.44 411.86 307.75 411.82C305.19 411.78 302.37 410.67 299.91 411.63C297.62 412.52 297.23 415.64 297.65 418.43C298.21 422.06 300.63 420.71 303.73 421C305.64 425.87 305.39 438.6 300.69 440.85C291.1 445.43 293.03 430.41 293.01 424.54C292.95 405.55 292.84 413.09 282.09 411.6C278.03 411.04 274.6 411.13 274.05 415.4C273.14 422.41 277.05 420.18 280.38 421.48C281.85 430.39 277.87 444.61 284.27 449.55C294.78 457.65 306.08 446.68 306.38 446.62C306.47 451.38 306.41 451.73 311.55 450.98C314.88 450.49 318.28 451.65 320.94 451.1C323.77 450.52 324.86 446.94 323.97 443.9Z" fill="#51215D"/>
<path fill-rule="evenodd" clip-rule="evenodd" d="M471.279 436.8C466.709 435.05 464.279 438.46 462.229 440.13C455.189 445.86 447.729 439.28 450.139 433.61L473.549 433.35C477.169 427.87 473.849 418.74 470.219 415.15C461.879 406.9 442.739 408.28 437.749 422.79C433.459 435.27 438.959 451.82 455.249 452.25C475.259 452.77 477.259 439.08 471.279 436.8ZM451.829 420.6C455.819 416.63 463.229 420.2 461.839 424.47C459.849 425.48 455.779 425.03 453.159 425C448.789 424.96 449.639 422.79 451.829 420.6Z" fill="#51215D"/>
<path fill-rule="evenodd" clip-rule="evenodd" d="M409.541 438.77C409.791 445.45 400.321 443.13 398.351 441.42C394.211 437.82 395.931 434.05 386.641 435.98C385.371 438.87 385.221 447.01 386.021 450.38C387.381 451.35 388.591 452.03 390.721 451.74C393.321 451.38 393.091 450.02 394.421 448.5C400.721 452.79 409.301 453.99 416.381 449.5C423.021 445.28 425.421 435.26 418.781 429.57C412.811 424.46 396.291 426.67 400.081 420.62C401.351 418.6 406.191 417.88 409.971 422.18C412.621 425.19 416.031 427.46 419.541 424.02C420.091 422.12 420.541 413.19 420.101 411.47C419.671 410.81 415.591 409.09 413.081 411.25C412.481 411.77 412.841 411.49 412.331 412.09L411.871 412.68C411.821 412.74 411.731 412.88 411.641 412.97C402.021 407.49 389.021 409.99 387.811 422.02C386.191 438.45 403.451 432.98 409.541 438.77Z" fill="#51215D"/>
<path fill-rule="evenodd" clip-rule="evenodd" d="M352.6 418.72C352.36 414.98 353.91 411.22 349.35 411.26C347.61 411.27 346.18 411.87 344.24 411.83C342.79 411.8 334.38 408.94 335.05 417.42C335.44 422.38 338.41 420.36 342.21 421.14C343.03 424.27 343.43 438.95 342.07 441.07C341.1 442.21 341.92 441.39 338.69 441.44C333.51 441.52 335.09 448.27 335.67 449.3C337.57 452.7 345.96 450.66 349.82 450.66C354.47 450.66 361.13 452.75 363.71 449.06C365.16 446.99 364.9 443.88 363.28 442.48C361.36 440.82 358.51 442.1 355.9 441.83C354.15 438.74 355.17 430.57 355.93 427.11C356.96 422.41 358.8 419.91 363.38 419.57C359.66 433.67 381.56 427.1 373.44 414.63C370.02 409.37 357.6 406.31 352.6 418.72Z" fill="#51215D"/>
<path fill-rule="evenodd" clip-rule="evenodd" d="M505.13 411.64C501.72 410.69 499.94 412.07 496.85 411.8C494.07 411.55 491.77 410.48 489.81 412.48C488.31 414.01 487.69 418.04 489.18 419.97C490.56 421.76 492.63 420.97 493.8 421.03L495.03 421.29C496.16 419.27 496.98 439.66 495.42 441.28C493.35 442.33 490.77 440.21 489.12 442.73C487.91 444.57 488.19 448.58 489.56 450.01C491.91 452.46 500.51 450.6 504.42 450.68C509.92 450.8 515.71 452.9 517.55 447.84C518.38 445.56 517.61 443.05 515.74 442.08C512.76 440.54 511.46 442.71 509.1 441.78C507.57 438.54 508.43 431.3 509.2 427.74C510.14 423.41 511.06 420.17 516.35 419.73C514.29 433.98 534.2 426.55 526.78 414.85C524.48 411.23 520.08 409.3 514.68 410.45C509.42 411.57 508.24 414.22 506.05 418.44C505.81 415.34 506.3 414.24 505.13 411.64Z" fill="#51215D"/>
<path fill-rule="evenodd" clip-rule="evenodd" d="M504.86 253.651C504.95 252.531 505.04 251.411 505.12 250.301C505.3 248.061 505.46 245.831 505.6 243.591C505.76 241.091 505.93 238.521 505.93 236.021C505.93 233.161 504.38 231.301 501.45 231.301C499.86 231.301 498.69 231.931 497.94 232.981C497.6 233.441 497.35 233.991 497.18 234.601C497.09 234.901 497.02 235.231 496.98 235.571C496.66 237.971 496.51 240.461 496.36 242.881C496.19 245.911 496.06 248.941 495.95 251.971L495.02 251.291C494.97 251.251 494.93 251.221 494.87 251.201C492.9 250.081 490.38 249.811 488.15 249.811C482.82 249.811 478.25 251.681 474.72 255.701C470.95 259.991 469.6 265.401 469.6 271.001C469.6 276.041 471.15 280.551 474.72 284.151C478.15 287.611 482.43 289.211 487.28 289.211C489.29 289.211 491.27 288.891 493.18 288.241C494.56 287.771 495.86 287.131 497.09 286.371C497.86 287.691 499.02 288.671 500.74 288.671C501.96 288.671 503.02 288.231 503.9 287.401C504.83 286.531 505.31 285.401 505.31 284.131C505.31 283.801 505.27 283.471 505.22 283.141C505.22 283.121 505.21 283.101 505.21 283.081C504.8 280.831 504.59 278.481 504.45 276.191C504.25 272.971 504.19 269.721 504.19 266.491C504.19 263.241 504.32 259.991 504.59 256.751C504.69 255.701 504.78 254.681 504.86 253.651ZM495.27 276.031C495.13 276.191 494.97 276.341 494.81 276.491C493.83 277.311 492.46 278.481 491.35 279.081C490.11 279.741 488.66 279.951 487.27 279.951C484.82 279.951 482.8 279.001 481.09 277.271C479.33 275.491 478.44 273.371 478.44 270.861C478.44 267.851 478.89 264.171 480.91 261.781C482.76 259.591 485.51 258.961 488.27 258.961C489.78 258.961 491.26 259.261 492.56 260.081C493.76 260.851 494.64 261.991 495.27 263.251L495.2 266.851L495.17 270.741V270.781L495.27 276.031Z" fill="#71B85D"/>
<path fill-rule="evenodd" clip-rule="evenodd" d="M426.66 256.87C424.17 252.42 420.35 249.98 415.22 249.98C409.18 249.98 404.36 252.46 400.92 257.42C397.99 261.64 396.68 266.52 396.83 271.64C396.98 276.68 398.43 281.4 402.01 285.06C404.95 288.07 408.55 289.66 412.76 289.66C418.05 289.66 422.25 287.36 425.33 283.09C428.22 279.08 429.43 274.44 429.5 269.54C429.56 265.17 428.83 260.73 426.66 256.87ZM420.33 271.2C420.24 273.7 419.54 276.03 417.73 277.83C416.34 279.22 414.72 279.95 412.75 279.95C411.09 279.95 409.74 279.32 408.58 278.15C406.86 276.39 406.34 273.99 406.34 271.61C406.34 268.81 406.92 266.12 408.33 263.69C409.78 261.18 411.79 259.7 414.75 259.72C415.65 259.73 416.54 259.9 417.32 260.38C420.35 262.23 420.44 268.13 420.33 271.2Z" fill="#EB7B3B"/>
<path fill-rule="evenodd" clip-rule="evenodd" d="M358.969 275.95C358.109 275.12 357.059 274.66 355.859 274.66C354.209 274.66 353.009 275.82 352.179 277.13C351.439 278.29 349.169 279.06 347.919 279.4C346.319 279.85 344.549 280.22 342.889 280.22C340.859 280.22 338.829 279.88 337.019 278.97C335.839 278.38 334.819 277.58 333.949 276.62L345.149 271.34C346.679 270.62 348.209 269.88 349.709 269.1C350.639 268.61 351.639 268.07 352.499 267.45C354.929 265.69 356.909 263.3 356.909 260.16C356.909 256.38 355.129 253.53 351.809 251.76C348.849 250.19 345.329 249.71 342.019 249.71C336.339 249.71 331.839 252.15 328.539 256.75C325.279 261.31 324.029 266.66 324.029 272.2C324.029 277.3 325.689 281.8 329.699 285.06C331.929 286.86 334.479 287.98 337.179 288.58C339.029 289 340.949 289.17 342.889 289.17C343.099 289.17 343.309 289.17 343.519 289.16C346.979 289.07 350.309 288.17 353.479 286.77C356.659 285.35 360.349 282.96 360.349 279.04C360.349 277.84 359.839 276.79 358.969 275.95ZM336.299 261.33C337.809 259.56 339.669 258.67 341.999 258.67C343.939 258.67 345.949 258.97 347.639 259.91C345.519 261.37 342.919 262.67 340.789 263.7L333.299 267.26C333.969 265.11 334.909 262.95 336.299 261.33Z" fill="#EE7933"/>
<path fill-rule="evenodd" clip-rule="evenodd" d="M444.64 253.98C447.39 251.14 450.82 248.88 454.88 248.88C458.96 248.88 462.03 250.73 463.71 254.47C465.02 257.38 465.35 261.22 465.42 264.37C465.42 264.38 465.42 264.39 465.42 264.4V267.81L465.39 270.92C465.39 273.21 465.72 275.64 466.08 277.89C466.46 280.3 466.8 282.85 466.8 285.29C466.8 286.62 466.35 287.82 465.39 288.74C464.45 289.64 463.26 290.07 461.96 290.07C459.16 290.07 457.56 288.35 457.22 285.64L456.3 278.29C455.99 275.79 455.83 273.28 455.83 270.76C455.83 269.68 455.89 268.58 455.95 267.5C456 266.48 456.07 265.42 456.07 264.39C456.07 262.96 456.01 261.2 455.6 259.82C455.52 259.56 455.24 258.72 454.93 258.61C454.9 258.6 454.86 258.6 454.83 258.6C452.3 258.6 450.24 260.61 448.8 262.48C446.64 265.29 445.23 268.69 444.26 272.08C444.2 273.15 444.09 274.22 443.96 275.28C443.84 276.3 443.76 277.33 443.76 278.36C443.76 279.3 443.87 280.3 443.96 281.23C444.06 282.27 444.16 283.35 444.16 284.4C444.16 285.71 443.75 286.92 442.83 287.86C441.91 288.8 440.73 289.24 439.43 289.24C438.11 289.24 436.92 288.81 436 287.85C435.08 286.9 434.69 285.7 434.69 284.39C434.69 283.46 434.58 282.47 434.48 281.54C434.36 280.5 434.25 279.41 434.25 278.37C434.25 275.16 434.48 271.88 434.74 268.68C434.99 265.56 435.22 262.36 435.22 259.23C435.22 258.2 435.17 257.16 435.11 256.13C435.05 255.05 434.99 253.95 434.99 252.86C434.99 251.54 435.43 250.35 436.39 249.43C437.32 248.54 438.48 248.11 439.77 248.11C443.13 248.11 444.43 250.82 444.63 253.81C444.63 253.83 444.63 253.85 444.63 253.87L444.64 253.98Z" fill="#E5005B"/>
<path fill-rule="evenodd" clip-rule="evenodd" d="M383.699 279.64L387.559 277.55C388.179 277.22 388.969 276.84 389.679 276.84C390.959 276.84 392.049 277.37 392.909 278.31C393.739 279.22 394.199 280.32 394.199 281.56C394.199 284.64 390.579 286.57 388.169 287.65C385.719 288.74 382.759 289.79 380.049 289.79C375.369 289.79 371.099 288.42 367.599 285.26C363.909 281.93 362.289 277.6 362.289 272.66C362.289 267.32 364.249 262.3 367.049 257.82C369.869 253.31 373.949 249.08 379.639 249.08C382.329 249.08 385.019 249.77 387.509 250.72C390.189 251.75 393.589 253.6 393.589 256.91C393.589 258.11 393.189 259.21 392.399 260.12C391.579 261.09 390.479 261.62 389.199 261.62C388.229 261.62 387.339 261.32 386.589 260.71C386.109 260.32 385.639 259.94 385.209 259.57C383.839 258.49 381.299 258.32 379.629 258.32C377.279 258.32 375.089 261.92 374.129 263.66C372.689 266.28 371.249 269.6 371.249 272.65C371.249 274.98 371.949 276.99 373.749 278.51C375.539 280.02 377.749 280.55 380.059 280.55C381.329 280.56 382.569 280.18 383.699 279.64Z" fill="#E4A7CB"/>
<path fill-rule="evenodd" clip-rule="evenodd" d="M292.64 252.201C292.64 253.751 295.36 254.461 296.48 254.721C297.29 254.911 298.19 255.011 299.02 255.101C300.48 255.261 301.94 255.381 303.4 255.491C308.21 255.841 312.84 257.301 316.34 260.741C319.27 263.621 320.74 267.171 320.74 271.281C320.74 277.381 317.76 281.981 312.7 285.251C307.98 288.301 302.66 289.611 297.07 289.611C292.96 289.611 288.96 288.861 285.22 287.131C281.33 285.331 278.14 282.451 278.04 277.911C278.01 276.581 278.48 275.391 279.47 274.491C280.43 273.631 281.59 273.221 282.88 273.221C284.67 273.221 286.02 274.321 286.97 275.751C287.61 276.711 288.63 278.151 289.61 278.801C291.65 280.161 294.7 280.431 297.08 280.431C300.23 280.431 303.25 279.771 306.06 278.341C308.84 276.931 310.95 274.891 310.95 271.611C310.95 268.981 309.16 267.361 306.95 266.221C304.09 264.741 300.74 264.211 297.55 264.101C294.17 263.991 290.82 263.281 287.86 261.601C284.37 259.611 282.36 256.611 282.36 252.561C282.36 247.361 285.71 243.401 289.73 240.501C293.96 237.451 298.71 235.561 303.96 235.561C306.55 235.561 309.19 236.051 311.68 236.721C314.1 237.371 318.19 238.721 318.19 241.831C318.19 244.641 316.5 246.251 313.71 246.251C312.17 246.251 310.21 245.811 308.7 245.481C307.2 245.151 305.37 244.781 303.84 244.801C300.96 244.841 298.16 245.481 295.76 247.131C293.98 248.361 292.64 249.961 292.64 252.201Z" fill="#A9D9E3"/>
<path d="M287.04 291.21H196.01V393.52H287.04V291.21Z" fill="#AF91C3"/>
<path fill-rule="evenodd" clip-rule="evenodd" d="M335.75 288.57C365.98 288.57 390.48 315.26 390.48 348.19C390.48 381.12 365.98 407.81 335.75 407.81C305.52 407.81 281.02 381.12 281.02 348.19C281.02 315.26 305.52 288.57 335.75 288.57Z" fill="#FAE800"/>
<path fill-rule="evenodd" clip-rule="evenodd" d="M588.329 392.77L527.769 396.53L388.979 396.9L384.459 300.99L583.819 289.7L588.329 392.77Z" fill="#E7480B"/>
<path fill-rule="evenodd" clip-rule="evenodd" d="M215.95 194.91L161.26 295.34L280.22 283.55L215.95 194.91Z" fill="#E5005C"/>
<path fill-rule="evenodd" clip-rule="evenodd" d="M371.32 335.1C369.36 330 366.55 325.45 363.05 321.49C359.51 317.51 355.44 314.17 350.8 311.93C346.28 309.74 341.45 308.78 336.52 308.78C331.6 308.78 326.81 309.75 322.28 311.93C317.64 314.17 313.55 317.5 310.03 321.5C306.54 325.45 303.78 330 301.83 335.09C299.94 340.04 298.99 345.24 298.99 350.62C298.99 356.05 299.94 361.3 301.82 366.31C303.75 371.43 306.52 375.98 310.03 379.94C313.54 383.91 317.61 387.21 322.23 389.42C326.77 391.59 331.58 392.54 336.51 392.54C341.46 392.54 346.32 391.59 350.88 389.42C355.5 387.22 359.54 383.91 363.04 379.94C366.53 375.98 369.36 371.45 371.31 366.35C373.23 361.33 374.18 356.08 374.18 350.63C374.2 345.24 373.22 340.04 371.32 335.1ZM337.55 378.3C326.71 378.3 317.93 365.02 317.93 348.63C317.93 332.24 326.72 318.96 337.55 318.96C348.39 318.96 357.17 332.24 357.17 348.63C357.18 365.02 348.39 378.3 337.55 378.3Z" fill="white"/>
<path fill-rule="evenodd" clip-rule="evenodd" d="M571.91 350.571C566.58 368.871 554.6 376.291 535.98 372.831L534.67 350.401C546 349.811 545.701 350.401 546.391 360.831L556.24 360.361L554.151 325.851L545.18 326.311C546.02 336.411 545.67 337.601 534.62 338.211C534.48 338.221 534.341 338.231 534.201 338.231L532.68 317.981L546.97 316.571C556.46 316.441 563.171 321.711 567.081 332.391L576.07 328.131L566.49 302.471L503.98 305.901L505.16 316.921L513.341 316.471L516.25 377.361L506.72 377.881L507.19 389.051L572.891 385.441L581.85 354.241L571.91 350.571Z" fill="white"/>
<path fill-rule="evenodd" clip-rule="evenodd" d="M410.99 325.79C410.65 322.54 401.75 322.81 401.75 322.81L401.32 311.26L435.82 309.23L450.28 359.32L462.46 307.89L496.07 306.04C496.36 310.05 496.65 314.06 496.94 318.07C496.94 318.07 488.71 316.77 487.73 321.43C488.23 341.06 490.02 357.15 490.51 376.78C490.55 379.39 501.25 377.86 501.25 377.86L501.7 389.17L464.19 391.55L463.91 379.91C463.91 379.91 472.25 380.98 472.32 377.41L470.05 321.33L455.91 392.34L445.17 393.39L424.29 327.23L425.22 379.14C425.26 379.9 425.43 381.73 426 382.31C426.48 382.79 428.04 382.78 428.64 382.75L435.97 382.35L437.06 392.86L405.64 394.47L405.19 383.8L411.81 383.44C412.42 383.41 413.05 383.28 413.43 382.75C413.95 382.02 413.99 380.76 413.94 379.9C412.95 361.86 411.97 343.83 410.99 325.79Z" fill="white"/>
<path fill-rule="evenodd" clip-rule="evenodd" d="M246.95 305.99H282.29V316.63H274.05V373.91H282.29V386.04H246.95V373.91H252.44C254.55 373.91 256.27 371.97 256.27 369.6V354.55C256.27 352.45 254.91 350.68 253.14 350.31H233.43C231.65 350.68 230.3 352.45 230.3 354.55V369.6C230.3 371.97 232.02 373.91 234.13 373.91H238.44V386.04H203.25V373.91H211.49V316.63H203.25V305.99H238.44V316.63H234.13C232.02 316.63 230.3 318.35 230.3 320.46V333.83C230.3 335.94 232.02 337.66 234.13 337.66H252.45C254.56 337.66 256.28 335.94 256.28 333.83V320.46C256.28 318.35 254.56 316.63 252.45 316.63H246.96V305.99H246.95Z" fill="white"/>
<path fill-rule="evenodd" clip-rule="evenodd" d="M567.089 265.38C565.739 268.15 557.009 265.66 554.319 266.09C551.519 272.07 548.639 281.98 552.269 289.08C557.019 298.36 592.609 311.92 585.679 273.92C585.339 272.04 585.109 269.67 584.599 267.81C584.069 265.86 583.189 264.49 583.229 262.53C584.919 261.6 588.649 261.15 591.009 260.2C597.919 257.43 604.539 252.07 607.999 245.23C616.449 228.54 610.959 195.18 593.669 182.7C585.329 176.68 574.429 172.38 561.329 174.95C538.739 179.39 524.859 197.21 524.599 222.79C524.389 243.7 530.449 256.57 548.739 262.64C551.799 263.65 554.049 264.07 557.339 264.43C559.999 264.72 565.429 263.79 567.089 265.38Z" fill="#A9D9E3"/>
<path fill-rule="evenodd" clip-rule="evenodd" d="M541.03 261.121C531.34 257.741 526.7 245.391 525.71 244.271C522.95 245.831 524.15 247.351 520.22 248.101C520.91 246.121 521.06 246.091 522.38 244.781C526.48 240.701 525.09 242.531 523.7 235.641C522.58 230.041 523.04 224.051 522.92 218.111C520.83 218.031 516.66 218.801 515.51 217.221C516.86 215.061 519.11 217.171 523.41 215.941C524.35 205.301 527.26 201.721 527.65 198.561C520.24 194.721 504.19 187.061 497.69 198.291C492.77 206.791 495.7 225.881 498.48 234.791C502.35 247.211 512.8 268.381 527.22 269.091C532.12 269.341 540.05 266.201 541.03 261.121Z" fill="#A9D9E3"/>
<path fill-rule="evenodd" clip-rule="evenodd" d="M638.989 208.361C632.749 201.391 618.879 196.591 609.079 198.601C608.129 200.581 610.219 204.231 611.309 208.561C612.249 212.261 612.459 216.081 613.209 219.911C618.719 220.781 620.559 218.811 621.699 221.551L613.509 221.931C612.829 228.821 613.879 232.921 611.789 239.891C611.319 241.441 609.389 245.661 609.739 246.821C610.389 248.981 613.159 250.211 613.469 253.311C609.839 252.811 611.579 250.791 608.309 248.581C605.839 250.711 605.009 253.431 599.729 257.331C597.869 258.711 596.699 259.591 594.389 260.651C592.579 261.491 589.679 262.181 588.439 263.351C591.789 268.291 601.449 269.081 608.139 267.171C620.199 263.721 635.059 248.801 640.189 237.461C641.559 234.421 642.419 231.111 643.629 228.201C643.639 228.211 646.589 216.861 638.989 208.361Z" fill="#A9D9E3"/>
<path fill-rule="evenodd" clip-rule="evenodd" d="M643.83 212.78C636.02 197.81 621.4 196.7 607.31 196.72C602.52 191.02 604.29 188.35 592.86 179.95C571.78 164.46 538.95 175.07 528.99 196.61C524.35 196 520.17 192.44 514.2 191.25C488.94 186.2 491.59 214.65 497.18 234.59C498.57 239.57 500.15 244.02 501.53 247.28C502.4 249.35 503.53 251.51 504.86 253.65C512.37 265.74 526.41 277.1 538.63 267.15C540.85 265.35 541.39 263.76 542.94 262.48C543.63 262.62 551.37 265.33 551.86 265.57C552.44 267.46 549.96 273.99 549.02 275.11C548.84 275.01 539.43 267.29 537.04 276.29C535.49 282.12 538.29 287.96 541.5 291.17C542.24 291.47 542.75 291.77 543.24 292C544.06 292.39 544.79 292.6 546.44 292.41C547.39 292.3 548.13 291.99 548.84 291.68C549.68 291.32 550.48 290.95 551.56 290.89C551.71 291.1 551.86 291.3 552.01 291.5C562.78 305.71 581.48 299.02 581.48 299.02C582.03 299.03 583.3 299.66 584.29 300.28C584.74 300.55 585.13 300.82 585.37 301.02C598.48 302.43 599.96 283.08 592.97 281.31C590.85 280.77 589.88 281.58 588.44 280.59C589.43 279.39 591.47 278.81 592.93 279.21C595.11 279.8 594.29 281.23 597.99 279.85C599.49 277.09 598.96 272.48 594.76 273.9C591.52 275 595.35 277.63 587.93 278.21L585.56 264.1C588.13 264.88 590.05 267.58 593.77 268.86C615.5 276.34 640.29 246.45 643.86 232.85C645.62 226.67 646.58 222.15 643.83 212.78ZM527.21 269.1C518 268.65 510.41 259.84 505.12 250.3C502.13 244.91 499.87 239.29 498.48 234.81C498.3 234.24 498.12 233.63 497.95 232.98C495.36 223.5 493.09 206.27 497.69 198.3C504.2 187.07 520.24 194.72 527.65 198.56C527.26 201.72 524.34 205.31 523.41 215.94C519.1 217.17 516.86 215.05 515.51 217.22C516.67 218.81 520.83 218.04 522.92 218.11C523.04 224.04 522.58 230.04 523.7 235.64C525.09 242.53 526.48 240.7 522.38 244.78C521.07 246.09 520.91 246.12 520.22 248.11C524.15 247.36 522.95 245.84 525.71 244.28C526.7 245.4 531.34 257.74 541.03 261.13C540.05 266.19 532.12 269.34 527.21 269.1ZM539.02 275.58C541.2 271.69 545.77 274.55 547.89 276.66C549.8 278.56 548.93 279.78 548.99 282.63C549.04 285.42 549.81 286.99 550.04 289.21C541.71 295.89 535.95 281.07 539.02 275.58ZM588.42 283.42C594.96 280.01 596.2 287.93 594.72 292.8C593.61 296.44 588.6 302.53 584.19 298.21C584.06 298.09 583.94 297.96 583.81 297.82C583.86 297.43 583.97 297.07 584.12 296.7C584.78 295.1 586.24 293.63 586.97 291.69C588.12 288.6 587.76 286.55 588.42 283.42ZM584.59 267.81C585.1 269.68 585.33 272.04 585.67 273.93C587.41 283.49 586.46 289.79 583.99 293.71C577.43 304.1 560.17 297.8 553.99 291.39C553.24 290.61 552.65 289.83 552.27 289.08C548.64 281.98 551.53 272.06 554.32 266.08C557.01 265.65 565.74 268.14 567.09 265.37C565.43 263.78 560.01 264.72 557.34 264.42C554.05 264.06 551.8 263.65 548.74 262.64C530.45 256.57 524.39 243.69 524.6 222.79C524.86 197.21 538.74 179.39 561.33 174.95C574.42 172.38 585.33 176.68 593.67 182.7C610.95 195.18 616.44 228.54 607.99 245.23C604.52 252.07 597.91 257.43 591 260.2C588.64 261.15 584.91 261.6 583.22 262.53C583.18 264.49 584.06 265.86 584.59 267.81ZM641.11 235.23C640.98 235.57 640.85 235.92 640.71 236.25C640.54 236.67 640.37 237.07 640.19 237.47C635.06 248.81 620.2 263.73 608.14 267.17C601.46 269.08 591.8 268.29 588.44 263.35C589.68 262.19 592.58 261.49 594.4 260.66C596.71 259.59 597.87 258.71 599.73 257.33C605.02 253.43 605.85 250.7 608.31 248.58C611.57 250.8 609.84 252.81 613.47 253.31C613.15 250.21 610.39 248.98 609.74 246.83C609.39 245.67 611.32 241.46 611.79 239.9C613.88 232.92 612.82 228.83 613.51 221.94L621.7 221.55C620.55 218.81 618.71 220.79 613.2 219.91C612.46 216.08 612.24 212.26 611.31 208.56C610.21 204.23 608.13 200.58 609.07 198.6C618.88 196.59 632.75 201.39 638.99 208.36C645.07 215.17 644.28 226.43 641.28 234.78C641.23 234.93 641.18 235.08 641.11 235.23Z" fill="#1A1A18"/>
<path fill-rule="evenodd" clip-rule="evenodd" d="M576.689 210.38C574.309 210.08 569.019 209.53 568.539 211.73C568.109 213.69 568.059 218.57 567.689 221.16C566.489 229.47 565.679 231.44 561.289 235.48C562.059 239.73 567.519 254.51 572.339 253.28C576.489 252.22 575.289 240.48 575.869 237.56C576.149 236.15 577.249 234.6 577.769 232.86C579.459 227.15 579.559 215.02 576.689 210.38ZM577.089 224.83C574.929 226.31 575.719 224.21 574.119 226.35C574.939 229.22 574.439 226.96 576.759 228.38C576.679 231.81 575.599 234.26 574.039 236.72L564.579 235.46L566.239 232.62C566.789 232.56 568.049 232.54 568.249 232.5L569.929 231.93C569.359 228.5 569.609 231.71 567.669 229.38L569.089 222.01L572.359 221.41C572.109 218.52 572.069 219.91 569.889 218.75C569.879 216.75 569.499 213.02 570.979 212.4C571.349 212.24 573.889 212.14 574.329 212.21C576.229 212.51 575.549 212.18 576.279 213.68C575.039 216.45 574.599 212.45 573.659 216.21C573.899 216.57 573.969 216.73 573.979 216.79C573.979 216.74 574.069 216.7 574.559 216.97L577.079 217.62L577.089 224.83Z" fill="#1A1A18"/>
<path fill-rule="evenodd" clip-rule="evenodd" d="M569.91 218.74C572.08 219.89 572.13 218.5 572.37 221.4L569.1 222L567.68 229.38C569.61 231.7 569.37 228.49 569.93 231.93L568.26 232.51C568.05 232.55 566.79 232.57 566.24 232.63L564.58 235.47L574.03 236.73C575.59 234.27 576.66 231.82 576.75 228.39C574.43 226.97 574.92 229.23 574.11 226.36C575.7 224.23 574.92 226.32 577.08 224.84L577.1 217.63L574.58 216.98C573.43 216.36 574.47 217.44 573.67 216.22C574.61 212.45 575.05 216.46 576.29 213.69C575.56 212.18 576.24 212.52 574.34 212.22C573.91 212.15 571.37 212.25 570.99 212.41C569.53 213.01 569.9 216.74 569.91 218.74Z" fill="#A3D5DF"/>
<path fill-rule="evenodd" clip-rule="evenodd" d="M550.04 289.2C549.81 286.98 549.05 285.42 548.99 282.63C548.93 279.78 549.8 278.56 547.89 276.66C545.77 274.55 541.2 271.69 539.02 275.58C535.96 281.07 541.7 295.89 550.04 289.2Z" fill="#A9D9E3"/>
<path fill-rule="evenodd" clip-rule="evenodd" d="M583.811 297.82C588.311 302.88 593.581 296.55 594.721 292.81C596.201 287.94 594.961 280.02 588.431 283.42C587.761 286.55 588.121 288.6 586.971 291.69C586.081 294.08 584.071 295.76 583.811 297.82Z" fill="#A9D9E3"/>
<path fill-rule="evenodd" clip-rule="evenodd" d="M595.929 204.75C596.739 204.75 597.399 206.29 597.399 208.18C597.399 210.08 596.739 211.61 595.929 211.61C595.119 211.61 594.459 210.07 594.459 208.18C594.459 206.28 595.119 204.75 595.929 204.75Z" fill="#1A1A18"/>
<path fill-rule="evenodd" clip-rule="evenodd" d="M548.159 212.21C548.969 212.21 549.629 213.75 549.629 215.64C549.629 217.54 548.969 219.07 548.159 219.07C547.349 219.07 546.689 217.53 546.689 215.64C546.689 213.75 547.349 212.21 548.159 212.21Z" fill="#1A1A18"/>
<path fill-rule="evenodd" clip-rule="evenodd" d="M537.04 234.18C540.94 233.64 544.42 235.55 544.82 238.45C545.22 241.35 542.38 244.13 538.48 244.67C534.58 245.21 531.1 243.3 530.7 240.4C530.3 237.5 533.14 234.72 537.04 234.18Z" fill="#F4B3D1"/>
<path fill-rule="evenodd" clip-rule="evenodd" d="M602.77 222.86C606.67 222.32 610.15 224.23 610.55 227.13C610.95 230.03 608.11 232.81 604.21 233.35C600.31 233.89 596.83 231.98 596.43 229.08C596.03 226.18 598.87 223.4 602.77 222.86Z" fill="#F4B3D1"/>
</g>
</g>
<defs>
<clipPath id="clip0_494_198">
<rect width="1291" height="640" fill="white"/>
</clipPath>
<clipPath id="clip1_494_198">
<rect width="485" height="296" fill="white" transform="translate(161 172)"/>
</clipPath>
</defs>
</svg>
