<svg width="194" height="220" viewBox="0 0 194 220" fill="none" xmlns="http://www.w3.org/2000/svg">
<g clip-path="url(#clip0_494_409)">
<path d="M97.0009 193.14C150.086 193.14 193.121 150.106 193.121 97.0204C193.121 43.9348 150.086 0.900391 97.0009 0.900391C43.9153 0.900391 0.880859 43.9348 0.880859 97.0204C0.880859 150.106 43.9153 193.14 97.0009 193.14Z" fill="#FC95A7"/>
<path d="M97.5707 59.4407L67.8707 65.3107L88.0307 133.501L113.691 122.501L134.591 162.831C134.591 162.831 111.311 171.761 88.0307 162.891C64.7507 154.031 41.4707 127.381 41.4707 86.8007C41.4707 5.64067 92.0707 13.9807 92.0707 13.9807" fill="#5FC6DE"/>
<path d="M88.0406 134.271C80.7006 141.241 76.3106 134.271 76.3106 134.271C59.4306 113.371 67.8806 66.0811 67.8806 66.0811L88.0406 134.271Z" fill="#4C9AB5"/>
<path d="M118.281 162.211C118.281 162.211 118.741 198.231 93.5512 176.211C82.2012 166.291 90.7812 162.211 90.7812 162.211C90.7812 162.211 111.011 159.881 104.901 187.761C101.371 203.851 66.4512 189.411 76.6212 179.651C83.1012 173.431 112.371 178.691 98.0712 219.111" stroke="black" stroke-width="0.5" stroke-miterlimit="10"/>
<path d="M113.611 21.7508C112.491 21.7508 111.411 21.1108 110.911 20.0208C110.221 18.5308 110.881 16.7608 112.371 16.0808L125.781 9.90084C127.271 9.21084 129.041 9.87084 129.721 11.3608C130.411 12.8508 129.751 14.6208 128.261 15.3008L114.851 21.4808C114.451 21.6608 114.031 21.7508 113.611 21.7508Z" fill="#FFFFFD"/>
<path d="M132.62 36.8807C132.53 36.8807 132.44 36.8807 132.34 36.8707L117.64 35.5107C116.01 35.3607 114.8 33.9107 114.95 32.2807C115.1 30.6507 116.54 29.4407 118.18 29.5907L132.88 30.9507C134.51 31.1007 135.72 32.5507 135.57 34.1807C135.43 35.7207 134.14 36.8807 132.62 36.8807Z" fill="#FFFFFD"/>
<path d="M126.81 58.1211C126.22 58.1211 125.62 57.9411 125.1 57.5711L113.05 49.0511C111.71 48.1011 111.39 46.2511 112.34 44.9111C113.29 43.5711 115.14 43.2511 116.48 44.2011L128.53 52.7211C129.87 53.6711 130.19 55.5211 129.24 56.8611C128.66 57.6911 127.74 58.1211 126.81 58.1211Z" fill="#FFFFFD"/>
<path d="M140.011 120.921C139.371 121.841 138.231 122.361 137.051 122.151C135.431 121.861 134.361 120.311 134.651 118.701L137.261 104.171C137.551 102.561 139.101 101.481 140.711 101.771C142.331 102.061 143.401 103.611 143.111 105.221L140.501 119.751C140.421 120.181 140.251 120.581 140.011 120.921Z" fill="#FFFFFD"/>
<path d="M163.292 114.001C163.242 114.071 163.182 114.151 163.122 114.221L153.592 125.501C152.532 126.751 150.662 126.911 149.402 125.851C148.152 124.791 147.982 122.921 149.052 121.661L158.582 110.381C159.642 109.131 161.512 108.971 162.772 110.031C163.962 111.031 164.162 112.761 163.292 114.001Z" fill="#FFFFFD"/>
<path d="M177.391 130.931C177.051 131.421 176.561 131.811 175.961 132.021L162.071 137.021C160.531 137.581 158.821 136.781 158.271 135.231C157.721 133.691 158.521 131.981 160.061 131.431L173.951 126.431C175.491 125.871 177.201 126.671 177.751 128.221C178.091 129.161 177.921 130.171 177.391 130.931Z" fill="#FFFFFD"/>
<path d="M135.501 162.821C135.501 162.821 112.211 171.741 88.9409 162.901C65.6509 154.041 42.3809 127.381 42.3809 86.8009C42.3809 5.65093 92.9809 13.9809 92.9809 13.9809L98.4809 59.4309L68.7809 65.3109L88.9409 133.501L114.611 122.501L135.501 162.821Z" fill="#4C9AB5"/>
<path d="M133.131 138.291C138.821 149.011 142.131 159.491 137.841 161.771C133.551 164.051 125.461 157.201 119.771 146.481C114.081 135.761 109.411 124.771 113.711 122.491C118.011 120.211 127.441 127.571 133.131 138.291Z" fill="#3288A7"/>
<path d="M87.3911 16.4908C83.0711 23.9008 76.3011 44.4008 92.2911 57.1508C95.7711 59.9208 100.661 59.9308 102.061 55.7308C105.361 45.8208 108.041 29.3308 96.5711 15.7308C94.0711 12.7708 89.3311 13.1608 87.3911 16.4908Z" fill="#2B84A4"/>
<path d="M94.1608 46.7708C99.8825 46.7708 104.521 42.1325 104.521 36.4108C104.521 30.6891 99.8825 26.0508 94.1608 26.0508C88.4391 26.0508 83.8008 30.6891 83.8008 36.4108C83.8008 42.1325 88.4391 46.7708 94.1608 46.7708Z" fill="#FFFFFD"/>
<path d="M64.6009 46.5505C70.2011 46.5505 74.7409 42.0107 74.7409 36.4105C74.7409 30.8103 70.2011 26.2705 64.6009 26.2705C59.0008 26.2705 54.4609 30.8103 54.4609 36.4105C54.4609 42.0107 59.0008 46.5505 64.6009 46.5505Z" fill="white"/>
<path d="M63.5802 31.0609C61.8502 29.7209 59.6702 29.3609 57.7102 29.8909C57.6702 29.0409 58.4102 28.4809 58.4202 28.4809C58.5902 28.3609 58.6302 28.1209 58.5002 27.9509C58.3802 27.7809 58.1402 27.7409 57.9702 27.8709C57.8502 27.9509 56.8402 28.7409 56.9502 30.0209C56.9502 30.0609 56.9602 30.1109 56.9602 30.1509C56.7602 30.2309 56.5602 30.3209 56.3702 30.4209C56.2602 30.3309 56.1502 30.2109 56.0602 30.0609C55.6002 29.3109 56.0302 28.4409 56.0302 28.4309C56.1302 28.2409 56.0502 28.0109 55.8602 27.9209C55.6702 27.8209 55.4402 27.9009 55.3502 28.0909C55.2902 28.2209 54.7302 29.3709 55.4102 30.4609C55.5002 30.6009 55.5902 30.7209 55.6902 30.8309C55.1102 31.2209 54.5802 31.7109 54.1302 32.2909C51.8602 35.2309 52.4002 39.4509 55.3402 41.7209C58.2802 43.9909 62.5002 43.4509 64.7702 40.5109C67.0402 37.5709 66.5102 33.3309 63.5802 31.0609Z" fill="#414151"/>
<path d="M60.3807 35.1112C61.4607 34.9712 62.4607 35.7412 62.6007 36.8212C62.7407 37.9012 61.9707 38.9012 60.8907 39.0412C59.8107 39.1812 58.8107 38.4112 58.6707 37.3312C58.5307 36.2412 59.3007 35.2512 60.3807 35.1112Z" fill="white"/>
<path d="M56.6011 36.5609C57.1611 36.4909 57.6711 36.8809 57.7411 37.4409C57.8111 38.0009 57.4211 38.5109 56.8611 38.5809C56.3011 38.6509 55.7911 38.2609 55.7211 37.7009C55.6411 37.1509 56.0411 36.6409 56.6011 36.5609Z" fill="white"/>
<path d="M85.8803 31.2509C87.9103 29.6809 90.4703 29.2608 92.7703 29.8808C92.8203 28.8808 91.9403 28.2309 91.9303 28.2209C91.7303 28.0709 91.6903 27.7909 91.8303 27.6009C91.9803 27.4009 92.2603 27.3609 92.4503 27.5009C92.5903 27.6009 93.7703 28.5208 93.6403 30.0208C93.6403 30.0708 93.6303 30.1209 93.6203 30.1709C93.8503 30.2609 94.0803 30.3709 94.3103 30.4809C94.4403 30.3709 94.5703 30.2308 94.6803 30.0608C95.2203 29.1808 94.7203 28.1609 94.7103 28.1509C94.6003 27.9309 94.6903 27.6609 94.9103 27.5509C95.1303 27.4409 95.4003 27.5309 95.5103 27.7509C95.5903 27.9009 96.2303 29.2509 95.4403 30.5409C95.3403 30.7009 95.2303 30.8409 95.1103 30.9709C95.7903 31.4309 96.4103 32.0009 96.9403 32.6909C99.6003 36.1409 98.9703 41.1008 95.5203 43.7608C92.0703 46.4208 87.1103 45.7908 84.4503 42.3408C81.7903 38.8908 82.4303 33.9209 85.8803 31.2509Z" fill="#414151"/>
<path d="M89.6301 36.0106C88.3601 35.8506 87.1901 36.7506 87.0301 38.0206C86.8701 39.2906 87.7701 40.4606 89.0401 40.6206C90.3101 40.7806 91.4801 39.8806 91.6401 38.6106C91.8001 37.3406 90.9001 36.1706 89.6301 36.0106Z" fill="white"/>
<path d="M94.0697 37.7102C93.4097 37.6302 92.8097 38.0902 92.7297 38.7502C92.6497 39.4102 93.1097 40.0102 93.7697 40.0902C94.4297 40.1702 95.0297 39.7102 95.1097 39.0502C95.1897 38.4002 94.7297 37.8002 94.0697 37.7102Z" fill="white"/>
</g>
<defs>
<clipPath id="clip0_494_409">
<rect width="194" height="220" fill="white"/>
</clipPath>
</defs>
</svg>
