<svg width="210" height="210" viewBox="0 0 210 210" fill="none" xmlns="http://www.w3.org/2000/svg">
<g clip-path="url(#clip0_494_257)">
<path d="M104.7 209.45C162.386 209.45 209.15 162.686 209.15 105C209.15 47.3137 162.386 0.549805 104.7 0.549805C47.0139 0.549805 0.25 47.3137 0.25 105C0.25 162.686 47.0139 209.45 104.7 209.45Z" fill="#FC95A7"/>
<path d="M198.809 160.2L66.1493 198.46C66.1993 198.08 66.2593 197.69 66.3093 197.31C66.1593 197.69 65.9993 198.08 65.8393 198.46L43.7993 206.04L65.6093 151.45C59.3793 112.9 40.4093 81.2896 27.2593 63.1996C21.6693 55.5096 26.1193 44.6396 35.4893 43.0896L144.409 25.0896C150.129 24.1396 155.949 26.0796 159.929 30.2796C173.979 45.1096 203.719 85.7096 198.809 160.2Z" fill="#408FAC"/>
<path d="M199.841 160.2L44.8306 206.04L66.6405 151.45C59.3105 110.52 41.5006 80.38 28.8206 63.19C23.1606 55.51 27.5906 44.57 37.0006 43.01L145.431 25.09C151.151 24.15 156.971 26.08 160.951 30.29C175.011 45.11 204.741 85.71 199.841 160.2Z" fill="#545454"/>
<path d="M125.17 105.91C131.698 105.91 136.99 100.618 136.99 94.0895C136.99 87.5615 131.698 82.2695 125.17 82.2695C118.642 82.2695 113.35 87.5615 113.35 94.0895C113.35 100.618 118.642 105.91 125.17 105.91Z" fill="#F3D3B2"/>
<path d="M153.32 97.5697C159.848 97.5697 165.14 92.2777 165.14 85.7497C165.14 79.2217 159.848 73.9297 153.32 73.9297C146.792 73.9297 141.5 79.2217 141.5 85.7497C141.5 92.2777 146.792 97.5697 153.32 97.5697Z" fill="#F3D3B2"/>
<path d="M94.7692 113.75C101.297 113.75 106.589 108.458 106.589 101.93C106.589 95.4023 101.297 90.1104 94.7692 90.1104C88.2412 90.1104 82.9492 95.4023 82.9492 101.93C82.9492 108.458 88.2412 113.75 94.7692 113.75Z" fill="#F3D3B2"/>
</g>
<defs>
<clipPath id="clip0_494_257">
<rect width="210" height="210" fill="white"/>
</clipPath>
</defs>
</svg>
