<svg width="206" height="194" viewBox="0 0 206 194" fill="none" xmlns="http://www.w3.org/2000/svg">
<g clip-path="url(#clip0_494_445)">
<path d="M99.6102 193.12C152.696 193.12 195.73 150.085 195.73 96.9999C195.73 43.9143 152.696 0.879883 99.6102 0.879883C46.5246 0.879883 3.49023 43.9143 3.49023 96.9999C3.49023 150.085 46.5246 193.12 99.6102 193.12Z" fill="#FC95A7"/>
<path d="M205.78 77.7893C205.78 77.7893 205.75 77.8793 205.69 78.0693C204.61 80.5393 196.44 98.7293 185.8 101.019L160.5 89.6093L150.29 181.779C150.29 181.779 51.6005 181.779 41.3905 175.689L45.0705 68.8293L13.6805 80.6793C13.6805 80.6793 3.47047 74.1193 0.230469 51.6993L51.6005 17.0293L158.86 19.4693L205.78 77.7893Z" fill="url(#paint0_linear_494_445)"/>
<path opacity="0.28" d="M205.78 77.7898C205.78 77.7898 205.76 77.8798 205.69 78.0498C204.61 80.5398 196.44 98.7198 185.79 101.01L160.5 89.5898L150.29 181.78C150.29 181.78 51.6105 181.78 41.3905 175.68L45.0705 68.8098L13.6805 80.6498C13.6805 80.6498 3.49047 74.1098 0.230469 51.6798L51.6105 17.0098L158.88 19.4498L205.78 77.7898Z" fill="#CB5341"/>
<path d="M62.8307 89.0393C67.4478 89.0393 71.1907 85.2964 71.1907 80.6793C71.1907 76.0622 67.4478 72.3193 62.8307 72.3193C58.2136 72.3193 54.4707 76.0622 54.4707 80.6793C54.4707 85.2964 58.2136 89.0393 62.8307 89.0393Z" fill="#FFFFF9"/>
<path d="M62.8293 83.7299C64.5138 83.7299 65.8793 82.3643 65.8793 80.6799C65.8793 78.9954 64.5138 77.6299 62.8293 77.6299C61.1448 77.6299 59.7793 78.9954 59.7793 80.6799C59.7793 82.3643 61.1448 83.7299 62.8293 83.7299Z" fill="#00364F"/>
<path d="M138.161 96.0198C142.778 96.0198 146.521 92.2769 146.521 87.6598C146.521 83.0427 142.778 79.2998 138.161 79.2998C133.544 79.2998 129.801 83.0427 129.801 87.6598C129.801 92.2769 133.544 96.0198 138.161 96.0198Z" fill="#FFFFF9"/>
<path d="M85.4795 89.9894C84.7295 89.8594 112.99 89.9894 112.99 89.9894C112.99 89.9894 111.24 102.119 98.4795 102.119C85.7195 102.119 85.4795 89.9894 85.4795 89.9894Z" fill="#FFFFF9"/>
<path d="M0.219851 51.6797C0.219851 51.6797 13.6799 61.8797 13.6799 76.9697C13.6799 92.0597 -0.190149 56.5697 0.219851 51.6797Z" fill="#D07063"/>
<path d="M131.56 18.8397C131.56 18.8397 129.18 26.3897 123.39 33.3097V33.3397C118.44 39.2797 111.05 44.7497 100.56 44.7497C77.7005 44.7497 71.9805 17.4697 71.9805 17.4697L86.5505 17.8097H86.5805L131.56 18.8397Z" fill="#F1917E"/>
<path d="M97.7004 84.6202C100.628 84.6202 103 82.8562 103 80.6802C103 78.5042 100.628 76.7402 97.7004 76.7402C94.7733 76.7402 92.4004 78.5042 92.4004 80.6802C92.4004 82.8562 94.7733 84.6202 97.7004 84.6202Z" fill="#FFFFF9"/>
<path d="M205.789 77.7897C205.789 77.7897 205.759 77.8797 205.699 78.0697C204.619 80.5397 196.449 98.7297 185.809 101.02C183.179 97.5797 201.089 72.6897 205.789 77.7897Z" fill="#D07063"/>
<path d="M138.159 90.7094C139.844 90.7094 141.209 89.3438 141.209 87.6594C141.209 85.9749 139.844 84.6094 138.159 84.6094C136.475 84.6094 135.109 85.9749 135.109 87.6594C135.109 89.3438 136.475 90.7094 138.159 90.7094Z" fill="#00364F"/>
<g opacity="0.59">
<path d="M122.119 33.3095V33.3295C117.169 39.2695 109.769 44.7495 99.2887 44.7495C76.4387 44.7495 70.7188 17.4795 70.7188 17.4795L85.2887 17.8095H85.3087C85.3187 17.8095 87.6687 37.8795 122.119 33.3095Z" fill="#CB5341"/>
<path d="M46.0696 54.9199L43.7996 68.8099L21.8496 77.0899C21.8596 77.0899 26.2796 58.1999 46.0696 54.9199Z" fill="#CB5341"/>
</g>
<path d="M61.8507 75.0596C59.5907 75.0596 57.5907 76.1396 56.3207 77.8096C55.7507 77.1396 56.0107 76.2196 56.0107 76.2096C56.0707 75.9996 55.9507 75.7796 55.7407 75.7296C55.5307 75.6696 55.3107 75.7896 55.2607 75.9996C55.2207 76.1396 54.8907 77.4196 55.7807 78.3896C55.8107 78.4196 55.8407 78.4496 55.8707 78.4796C55.7607 78.6696 55.6507 78.8696 55.5607 79.0696C55.4107 79.0596 55.2507 79.0396 55.0807 78.9696C54.2307 78.6496 54.0307 77.6696 54.0307 77.6596C53.9907 77.4496 53.7907 77.3096 53.5707 77.3496C53.3607 77.3896 53.2207 77.5996 53.2607 77.8096C53.2907 77.9596 53.5607 79.2396 54.8007 79.7096C54.9607 79.7696 55.1107 79.8096 55.2607 79.8296C55.0307 80.5096 54.9107 81.2396 54.9107 81.9996C54.9107 85.8296 58.0107 88.9296 61.8407 88.9296C65.6707 88.9296 68.7707 85.8296 68.7707 81.9996C68.7807 78.1696 65.6807 75.0596 61.8507 75.0596Z" fill="#414151"/>
<path d="M61.7898 80.3793C62.5898 79.5793 63.8798 79.5793 64.6798 80.3793C65.4798 81.1793 65.4798 82.4693 64.6798 83.2693C63.8798 84.0693 62.5898 84.0693 61.7898 83.2693C60.9998 82.4693 60.9998 81.1793 61.7898 80.3793Z" fill="white"/>
<path d="M59.62 83.9491C60.03 83.5391 60.7 83.5391 61.11 83.9491C61.52 84.3591 61.52 85.0291 61.11 85.4391C60.7 85.8491 60.03 85.8491 59.62 85.4391C59.21 85.0291 59.21 84.3591 59.62 83.9491Z" fill="white"/>
<path d="M142.009 83.5999C143.789 84.9699 144.709 87.0399 144.689 89.1199C145.539 88.9399 145.899 88.0599 145.909 88.0499C145.989 87.8499 146.219 87.7499 146.419 87.8299C146.619 87.9099 146.719 88.1399 146.639 88.3399C146.589 88.4799 146.069 89.6799 144.779 89.8999C144.739 89.9099 144.689 89.9099 144.649 89.9199C144.619 90.1399 144.589 90.3599 144.539 90.5699C144.659 90.6599 144.809 90.7299 144.979 90.7899C145.849 91.0499 146.599 90.3999 146.599 90.3899C146.759 90.2499 147.009 90.2599 147.149 90.4199C147.289 90.5799 147.279 90.8299 147.119 90.9699C147.009 91.0699 146.009 91.9099 144.749 91.5299C144.589 91.4799 144.449 91.4199 144.319 91.3499C144.079 92.0299 143.739 92.6799 143.269 93.2699C140.939 96.2799 136.609 96.8399 133.599 94.5099C130.589 92.1799 130.029 87.8499 132.359 84.8399C134.669 81.8299 138.989 81.2799 142.009 83.5999Z" fill="#414151"/>
<path d="M138.82 87.82C138.68 86.71 137.66 85.92 136.55 86.07C135.44 86.21 134.65 87.23 134.8 88.34C134.94 89.45 135.96 90.24 137.07 90.09C138.18 89.95 138.96 88.94 138.82 87.82Z" fill="white"/>
<path d="M138.359 91.95C138.289 91.38 137.759 90.97 137.189 91.04C136.619 91.11 136.209 91.64 136.279 92.21C136.349 92.78 136.879 93.19 137.449 93.12C138.029 93.05 138.429 92.52 138.359 91.95Z" fill="white"/>
</g>
<defs>
<linearGradient id="paint0_linear_494_445" x1="155.49" y1="149.966" x2="121.23" y2="117.542" gradientUnits="userSpaceOnUse">
<stop stop-color="#ECA196"/>
<stop offset="1" stop-color="#F8C0B3"/>
</linearGradient>
<clipPath id="clip0_494_445">
<rect width="206" height="194" fill="white"/>
</clipPath>
</defs>
</svg>
