<svg width="194" height="202" viewBox="0 0 194 202" fill="none" xmlns="http://www.w3.org/2000/svg">
<g clip-path="url(#clip0_494_339)">
<path d="M97.0009 201.58C150.086 201.58 193.121 158.545 193.121 105.46C193.121 52.3742 150.086 9.33984 97.0009 9.33984C43.9153 9.33984 0.880859 52.3742 0.880859 105.46C0.880859 158.545 43.9153 201.58 97.0009 201.58Z" fill="#FC95A7"/>
<path d="M158.802 74.3899V74.8399C158.382 89.4599 152.992 113.09 126.392 131.9C101.102 149.78 109.692 161.79 120.322 168.46C127.252 172.8 135.422 174.85 143.632 174.85H154.842V184.11C154.842 184.11 126.332 184.11 124.192 184.11H46.1823V174.85H57.3923C65.6023 174.85 73.7723 172.81 80.7023 168.46C91.3323 161.79 99.9223 149.78 74.6723 131.9C58.6123 120.53 50.2823 107.44 46.1223 95.5899C39.6723 77.3899 43.0923 62.2199 43.3123 61.2299C43.3423 61.1699 43.3423 61.1699 43.3423 61.1699H157.712C157.722 61.1699 159.032 66.3799 158.802 74.3899Z" fill="#42A1B9"/>
<path d="M158.092 74.4001V74.8302C157.682 89.4702 152.272 113.08 125.682 131.89C100.392 149.77 108.982 161.77 119.612 168.46C126.542 172.8 134.722 174.85 142.932 174.85H154.132V184.1C154.132 184.1 125.612 184.1 123.472 184.1H45.4518V174.85H56.6818C64.8818 174.85 73.0418 172.8 79.9718 168.46C90.6118 161.78 99.2018 149.78 73.9518 131.89C57.8818 120.53 49.5418 107.44 45.4118 95.5702C38.9618 77.3902 42.3618 62.2101 42.5918 61.2301C42.6118 61.1601 42.6118 61.1602 42.6118 61.1602H157.002C157.002 61.1802 158.322 66.3801 158.092 74.4001Z" fill="#307893"/>
<path d="M45.4922 61.1799C45.4922 38.6799 67.4122 0.419922 97.8522 0.419922C132.942 0.419922 154.122 37.5499 154.122 60.0499" fill="#FAD0C4"/>
<path d="M45.4922 61.1897C45.4922 38.6897 67.4122 0.429688 97.8522 0.429688C132.942 0.429688 154.122 37.5597 154.122 60.0597L45.4922 61.1897Z" fill="#F4BEB2"/>
<path d="M152.892 44.2197L45.7222 54.9997L45.4922 61.1797H154.122C154.132 61.1697 155.262 56.1097 152.892 44.2197Z" fill="#F4BEB2"/>
<path d="M143.633 174.85H154.843V184.11C154.843 184.11 126.333 184.11 124.193 184.11C122.023 184.11 70.8326 162.43 112.443 122.64C154.083 82.8499 148.463 61.1699 148.463 61.1699H159.973C159.973 61.1699 168.033 102.42 126.393 131.9C101.103 149.78 109.693 161.79 120.323 168.46C127.253 172.8 135.433 174.85 143.633 174.85Z" fill="#307893"/>
<path d="M140.822 79.1999L52.9525 94.4099C48.8925 95.1099 44.9825 92.5099 44.0325 88.4899C40.5225 73.5899 43.1125 62.0899 43.3125 61.2299C43.3425 61.1699 43.3425 61.1699 43.3425 61.1699H148.462C148.462 61.1699 148.322 68.4099 147.032 73.4999C146.272 76.4599 143.832 78.6799 140.822 79.1999Z" fill="#62C1D7"/>
<path d="M67.5713 49.9102C73.0721 49.9102 77.5313 45.451 77.5313 39.9502C77.5313 34.4495 73.0721 29.9902 67.5713 29.9902C62.0706 29.9902 57.6113 34.4495 57.6113 39.9502C57.6113 45.451 62.0706 49.9102 67.5713 49.9102Z" fill="#FFFFFD"/>
<path d="M67.5714 43.5803C69.5762 43.5803 71.2014 41.9551 71.2014 39.9503C71.2014 37.9455 69.5762 36.3203 67.5714 36.3203C65.5666 36.3203 63.9414 37.9455 63.9414 39.9503C63.9414 41.9551 65.5666 43.5803 67.5714 43.5803Z" fill="#11495F"/>
<path d="M130.261 49.9102C135.762 49.9102 140.221 45.451 140.221 39.9502C140.221 34.4495 135.762 29.9902 130.261 29.9902C124.76 29.9902 120.301 34.4495 120.301 39.9502C120.301 45.451 124.76 49.9102 130.261 49.9102Z" fill="#FFFFFD"/>
<path d="M130.261 43.5803C132.266 43.5803 133.891 41.9551 133.891 39.9503C133.891 37.9455 132.266 36.3203 130.261 36.3203C128.256 36.3203 126.631 37.9455 126.631 39.9503C126.631 41.9551 128.256 43.5803 130.261 43.5803Z" fill="#11495F"/>
<path d="M84.5916 73.72C83.7016 73.57 117.362 73.72 117.362 73.72C117.362 73.72 115.272 88.17 100.082 88.17C84.8916 88.17 84.5916 73.72 84.5916 73.72Z" fill="#FFFFFD"/>
<path d="M100.971 59.0903C103.285 59.0903 105.161 52.1463 105.161 43.5803C105.161 35.0144 103.285 28.0703 100.971 28.0703C98.6572 28.0703 96.7812 35.0144 96.7812 43.5803C96.7812 52.1463 98.6572 59.0903 100.971 59.0903Z" fill="#FFFFFD"/>
<path d="M67.4524 33.0996C64.8724 33.0996 62.5924 34.3296 61.1424 36.2396C60.4924 35.4796 60.7824 34.4196 60.7924 34.4096C60.8624 34.1696 60.7224 33.9196 60.4824 33.8596C60.2424 33.7896 59.9924 33.9296 59.9324 34.1696C59.8824 34.3296 59.5024 35.7896 60.5324 36.8996C60.5624 36.9396 60.6024 36.9696 60.6424 37.0096C60.5124 37.2296 60.3924 37.4496 60.2924 37.6796C60.1224 37.6696 59.9324 37.6396 59.7424 37.5696C58.7724 37.1996 58.5424 36.0796 58.5424 36.0696C58.4924 35.8296 58.2624 35.6696 58.0224 35.7096C57.7824 35.7596 57.6224 35.9896 57.6624 36.2296C57.6924 36.3996 58.0124 37.8696 59.4224 38.3996C59.6024 38.4696 59.7824 38.5096 59.9424 38.5396C59.6824 39.3196 59.5424 40.1596 59.5424 41.0196C59.5424 45.3896 63.0924 48.9396 67.4624 48.9396C71.8324 48.9396 75.3824 45.3896 75.3824 41.0196C75.3724 36.6496 71.8324 33.0996 67.4524 33.0996Z" fill="#414151"/>
<path d="M67.3934 39.1796C68.3034 38.2696 69.7834 38.2696 70.6934 39.1796C71.6034 40.0896 71.6034 41.5696 70.6934 42.4796C69.7834 43.3896 68.3034 43.3896 67.3934 42.4796C66.4834 41.5596 66.4834 40.0896 67.3934 39.1796Z" fill="white"/>
<path d="M64.913 43.25C65.383 42.78 66.143 42.78 66.613 43.25C67.083 43.72 67.083 44.48 66.613 44.95C66.143 45.42 65.383 45.42 64.913 44.95C64.443 44.49 64.443 43.72 64.913 43.25Z" fill="white"/>
<path d="M130.862 33.0996C133.442 33.0996 135.722 34.3296 137.172 36.2396C137.822 35.4796 137.532 34.4196 137.522 34.4096C137.452 34.1696 137.592 33.9196 137.832 33.8596C138.072 33.7896 138.322 33.9296 138.382 34.1696C138.432 34.3296 138.812 35.7896 137.782 36.8996C137.752 36.9396 137.712 36.9696 137.672 37.0096C137.802 37.2296 137.922 37.4496 138.022 37.6796C138.192 37.6696 138.382 37.6396 138.572 37.5696C139.542 37.1996 139.772 36.0796 139.772 36.0696C139.822 35.8296 140.052 35.6696 140.292 35.7096C140.532 35.7596 140.692 35.9896 140.652 36.2296C140.622 36.3996 140.302 37.8696 138.892 38.3996C138.712 38.4696 138.532 38.5096 138.372 38.5396C138.632 39.3196 138.772 40.1596 138.772 41.0196C138.772 45.3896 135.222 48.9396 130.852 48.9396C126.482 48.9396 122.932 45.3896 122.932 41.0196C122.952 36.6496 126.492 33.0996 130.862 33.0996Z" fill="#414151"/>
<path d="M130.932 39.1796C130.022 38.2696 128.542 38.2696 127.632 39.1796C126.722 40.0896 126.722 41.5696 127.632 42.4796C128.542 43.3896 130.022 43.3896 130.932 42.4796C131.842 41.5596 131.842 40.0896 130.932 39.1796Z" fill="white"/>
<path d="M133.412 43.25C132.942 42.78 132.182 42.78 131.712 43.25C131.242 43.72 131.242 44.48 131.712 44.95C132.182 45.42 132.942 45.42 133.412 44.95C133.882 44.49 133.882 43.72 133.412 43.25Z" fill="white"/>
</g>
<defs>
<clipPath id="clip0_494_339">
<rect width="194" height="202" fill="white"/>
</clipPath>
</defs>
</svg>
