<svg width="485" height="296" viewBox="0 0 485 296" fill="none" xmlns="http://www.w3.org/2000/svg">
<g clip-path="url(#clip0_494_201)">
<path fill-rule="evenodd" clip-rule="evenodd" d="M45.8402 236.9C47.7602 240.81 46.9702 247.47 46.9702 252.54C46.9702 256.66 48.2803 265.61 45.7303 268.12C43.7603 269.51 41.6502 267.09 38.9402 268.9C37.2402 270.03 36.3702 273.32 37.3302 276.23C38.9802 281.26 46.7802 278.71 51.9602 278.64C56.7002 278.58 64.8002 280.85 67.2702 277.48C68.6702 275.58 68.6802 271.97 67.4002 270.03C65.6702 267.4 63.4103 268.7 59.8903 268.42C58.1203 263.87 58.6802 248.01 58.9602 241.74C60.4602 243.29 60.7002 244.49 61.5202 246.51L72.3402 271.14C73.8802 274.76 74.4503 278.83 79.2903 279.01C95.3503 279.59 93.7503 279.94 93.7303 264.7C93.7203 258.4 92.6302 241.41 94.7402 237.07C97.6402 236.37 99.9603 238.19 102.2 236.36C103.89 234.97 104.51 232.03 103.7 229.66C101.83 224.18 94.0902 226.71 88.9702 226.84C83.9302 226.96 76.1202 224.36 73.6302 228.58C72.3602 230.73 72.5902 233.9 73.8802 235.72C76.0602 238.8 78.4703 235.99 80.8503 237.27C82.6503 239.55 82.0502 259.07 81.6902 263.48C79.3102 257.66 76.7302 251.4 74.2402 245.42C64.5602 222.14 68.6502 226.11 55.0002 226.77C50.4102 226.99 46.3502 225.94 42.3102 226.15C38.2502 226.37 36.2502 229.24 37.0602 233.5C38.0602 238.67 41.5902 236.5 45.8402 236.9Z" fill="#51215D"/>
<path fill-rule="evenodd" clip-rule="evenodd" d="M398.38 248.61C399.84 247.73 401.97 247.61 402.78 246.02C403.63 244.35 403.19 241.5 402.18 240.42C399.8 237.87 393.23 240 389.53 239.88C385.13 239.74 380.24 237.91 378.34 241.88C377.6 243.42 377.58 246.52 378.5 247.86C379.62 249.49 382.04 249.01 384.17 249.32C385.89 251.8 396.55 276.86 396.65 279.41C396.8 283.11 393.55 286.72 389.55 285.96C388.8 283.25 389.63 281.53 387.42 280C381.82 276.14 373.81 283.02 378.56 290.31C383.05 297.21 395.22 296.45 401.57 291.42C407.87 286.42 410.09 280.2 413.44 271.34C415.39 266.17 420.21 252.14 422.39 249.05C424.44 248.94 426.38 249.5 427.78 248.18C428.72 247.29 432.57 238.21 421.48 239.43C416.38 239.99 414.79 239.28 410.32 239.25C405.91 239.22 405.04 242.13 405.9 246.38C407.22 247.59 408.07 247.59 409.61 248.55C409.63 251.04 405.09 265.2 403.86 267.07C402.54 262.17 398.66 253.26 398.38 248.61Z" fill="#51215D"/>
<path fill-rule="evenodd" clip-rule="evenodd" d="M162.97 271.9C162 268.57 158.86 270.29 156.79 269.36C153.34 264.51 158.52 243.66 154.86 239.72C152.66 238.63 149.44 239.86 146.75 239.82C144.19 239.78 141.37 238.67 138.91 239.63C136.62 240.52 136.23 243.64 136.65 246.43C137.21 250.06 139.63 248.71 142.73 249C144.64 253.87 144.39 266.6 139.69 268.85C130.1 273.43 132.03 258.41 132.01 252.54C131.95 233.55 131.84 241.09 121.09 239.6C117.03 239.04 113.6 239.13 113.05 243.4C112.14 250.41 116.05 248.18 119.38 249.48C120.85 258.39 116.87 272.61 123.27 277.55C133.78 285.65 145.08 274.68 145.38 274.62C145.47 279.38 145.41 279.73 150.55 278.98C153.88 278.49 157.28 279.65 159.94 279.1C162.77 278.52 163.86 274.94 162.97 271.9Z" fill="#51215D"/>
<path fill-rule="evenodd" clip-rule="evenodd" d="M310.279 264.8C305.709 263.05 303.279 266.46 301.229 268.13C294.189 273.86 286.729 267.28 289.139 261.61L312.549 261.35C316.169 255.87 312.849 246.74 309.219 243.15C300.879 234.9 281.739 236.28 276.749 250.79C272.459 263.27 277.959 279.82 294.249 280.25C314.259 280.77 316.259 267.08 310.279 264.8ZM290.829 248.6C294.819 244.63 302.229 248.2 300.839 252.47C298.849 253.48 294.779 253.03 292.159 253C287.789 252.96 288.639 250.79 290.829 248.6Z" fill="#51215D"/>
<path fill-rule="evenodd" clip-rule="evenodd" d="M248.541 266.77C248.791 273.45 239.321 271.13 237.351 269.42C233.211 265.82 234.931 262.05 225.641 263.98C224.371 266.87 224.221 275.01 225.021 278.38C226.381 279.35 227.591 280.03 229.721 279.74C232.321 279.38 232.091 278.02 233.421 276.5C239.721 280.79 248.301 281.99 255.381 277.5C262.021 273.28 264.421 263.26 257.781 257.57C251.811 252.46 235.291 254.67 239.081 248.62C240.351 246.6 245.191 245.88 248.971 250.18C251.621 253.19 255.031 255.46 258.541 252.02C259.091 250.12 259.541 241.19 259.101 239.47C258.671 238.81 254.591 237.09 252.081 239.25C251.481 239.77 251.841 239.49 251.331 240.09L250.871 240.68C250.821 240.74 250.731 240.88 250.641 240.97C241.021 235.49 228.021 237.99 226.811 250.02C225.191 266.45 242.451 260.98 248.541 266.77Z" fill="#51215D"/>
<path fill-rule="evenodd" clip-rule="evenodd" d="M191.6 246.72C191.36 242.98 192.91 239.22 188.35 239.26C186.61 239.27 185.18 239.87 183.24 239.83C181.79 239.8 173.38 236.94 174.05 245.42C174.44 250.38 177.41 248.36 181.21 249.14C182.03 252.27 182.43 266.95 181.07 269.07C180.1 270.21 180.92 269.39 177.69 269.44C172.51 269.52 174.09 276.27 174.67 277.3C176.57 280.7 184.96 278.66 188.82 278.66C193.47 278.66 200.13 280.75 202.71 277.06C204.16 274.99 203.9 271.88 202.28 270.48C200.36 268.82 197.51 270.1 194.9 269.83C193.15 266.74 194.17 258.57 194.93 255.11C195.96 250.41 197.8 247.91 202.38 247.57C198.66 261.67 220.56 255.1 212.44 242.63C209.02 237.37 196.6 234.31 191.6 246.72Z" fill="#51215D"/>
<path fill-rule="evenodd" clip-rule="evenodd" d="M344.13 239.64C340.72 238.69 338.94 240.07 335.85 239.8C333.07 239.55 330.77 238.48 328.81 240.48C327.31 242.01 326.69 246.04 328.18 247.97C329.56 249.76 331.63 248.97 332.8 249.03L334.03 249.29C335.16 247.27 335.98 267.66 334.42 269.28C332.35 270.33 329.77 268.21 328.12 270.73C326.91 272.57 327.19 276.58 328.56 278.01C330.91 280.46 339.51 278.6 343.42 278.68C348.92 278.8 354.71 280.9 356.55 275.84C357.38 273.56 356.61 271.05 354.74 270.08C351.76 268.54 350.46 270.71 348.1 269.78C346.57 266.54 347.43 259.3 348.2 255.74C349.14 251.41 350.06 248.17 355.35 247.73C353.29 261.98 373.2 254.55 365.78 242.85C363.48 239.23 359.08 237.3 353.68 238.45C348.42 239.57 347.24 242.22 345.05 246.44C344.81 243.34 345.3 242.24 344.13 239.64Z" fill="#51215D"/>
<path fill-rule="evenodd" clip-rule="evenodd" d="M343.86 81.6508C343.95 80.5308 344.04 79.4108 344.12 78.3008C344.3 76.0608 344.46 73.8308 344.6 71.5908C344.76 69.0908 344.93 66.5208 344.93 64.0208C344.93 61.1608 343.38 59.3008 340.45 59.3008C338.86 59.3008 337.69 59.9308 336.94 60.9808C336.6 61.4408 336.35 61.9908 336.18 62.6008C336.09 62.9008 336.02 63.2308 335.98 63.5708C335.66 65.9708 335.51 68.4608 335.36 70.8808C335.19 73.9108 335.06 76.9408 334.95 79.9708L334.02 79.2908C333.97 79.2508 333.93 79.2208 333.87 79.2008C331.9 78.0808 329.38 77.8108 327.15 77.8108C321.82 77.8108 317.25 79.6808 313.72 83.7008C309.95 87.9908 308.6 93.4008 308.6 99.0008C308.6 104.041 310.15 108.551 313.72 112.151C317.15 115.611 321.43 117.211 326.28 117.211C328.29 117.211 330.27 116.891 332.18 116.241C333.56 115.771 334.86 115.131 336.09 114.371C336.86 115.691 338.02 116.671 339.74 116.671C340.96 116.671 342.02 116.231 342.9 115.401C343.83 114.531 344.31 113.401 344.31 112.131C344.31 111.801 344.27 111.471 344.22 111.141C344.22 111.121 344.21 111.101 344.21 111.081C343.8 108.831 343.59 106.481 343.45 104.191C343.25 100.971 343.19 97.7208 343.19 94.4908C343.19 91.2408 343.32 87.9908 343.59 84.7508C343.69 83.7008 343.78 82.6808 343.86 81.6508ZM334.27 104.031C334.13 104.191 333.97 104.341 333.81 104.491C332.83 105.311 331.46 106.481 330.35 107.081C329.11 107.741 327.66 107.951 326.27 107.951C323.82 107.951 321.8 107.001 320.09 105.271C318.33 103.491 317.44 101.371 317.44 98.8608C317.44 95.8508 317.89 92.1708 319.91 89.7808C321.76 87.5908 324.51 86.9608 327.27 86.9608C328.78 86.9608 330.26 87.2608 331.56 88.0808C332.76 88.8508 333.64 89.9908 334.27 91.2508L334.2 94.8508L334.17 98.7408V98.7808L334.27 104.031Z" fill="#71B85D"/>
<path fill-rule="evenodd" clip-rule="evenodd" d="M265.66 84.8705C263.17 80.4205 259.35 77.9805 254.22 77.9805C248.18 77.9805 243.36 80.4605 239.92 85.4205C236.99 89.6405 235.68 94.5205 235.83 99.6405C235.98 104.68 237.43 109.4 241.01 113.06C243.95 116.07 247.55 117.66 251.76 117.66C257.05 117.66 261.25 115.36 264.33 111.09C267.22 107.08 268.43 102.44 268.5 97.5405C268.56 93.1705 267.83 88.7305 265.66 84.8705ZM259.33 99.2005C259.24 101.7 258.54 104.03 256.73 105.83C255.34 107.22 253.72 107.95 251.75 107.95C250.09 107.95 248.74 107.32 247.58 106.15C245.86 104.39 245.34 101.99 245.34 99.6105C245.34 96.8105 245.92 94.1205 247.33 91.6905C248.78 89.1805 250.79 87.7005 253.75 87.7205C254.65 87.7305 255.54 87.9005 256.32 88.3805C259.35 90.2305 259.44 96.1305 259.33 99.2005Z" fill="#EB7B3B"/>
<path fill-rule="evenodd" clip-rule="evenodd" d="M197.969 103.95C197.109 103.12 196.059 102.66 194.859 102.66C193.209 102.66 192.009 103.82 191.179 105.13C190.439 106.29 188.169 107.06 186.919 107.4C185.319 107.85 183.549 108.22 181.889 108.22C179.859 108.22 177.829 107.88 176.019 106.97C174.839 106.38 173.819 105.58 172.949 104.62L184.149 99.34C185.679 98.62 187.209 97.88 188.709 97.1C189.639 96.61 190.639 96.07 191.499 95.45C193.929 93.69 195.909 91.3 195.909 88.16C195.909 84.38 194.129 81.5299 190.809 79.7599C187.849 78.1899 184.329 77.71 181.019 77.71C175.339 77.71 170.839 80.15 167.539 84.75C164.279 89.31 163.029 94.66 163.029 100.2C163.029 105.3 164.689 109.8 168.699 113.06C170.929 114.86 173.479 115.98 176.179 116.58C178.029 117 179.949 117.17 181.889 117.17C182.099 117.17 182.309 117.17 182.519 117.16C185.979 117.07 189.309 116.17 192.479 114.77C195.659 113.35 199.349 110.96 199.349 107.04C199.349 105.84 198.839 104.79 197.969 103.95ZM175.299 89.3299C176.809 87.5599 178.669 86.67 180.999 86.67C182.939 86.67 184.949 86.97 186.639 87.91C184.519 89.37 181.919 90.67 179.789 91.7L172.299 95.26C172.969 93.11 173.909 90.9499 175.299 89.3299Z" fill="#EE7933"/>
<path fill-rule="evenodd" clip-rule="evenodd" d="M283.64 81.9803C286.39 79.1403 289.82 76.8804 293.88 76.8804C297.96 76.8804 301.03 78.7304 302.71 82.4704C304.02 85.3804 304.35 89.2203 304.42 92.3703C304.42 92.3803 304.42 92.3903 304.42 92.4003V95.8103L304.39 98.9204C304.39 101.21 304.72 103.64 305.08 105.89C305.46 108.3 305.8 110.85 305.8 113.29C305.8 114.62 305.35 115.82 304.39 116.74C303.45 117.64 302.26 118.07 300.96 118.07C298.16 118.07 296.56 116.35 296.22 113.64L295.3 106.29C294.99 103.79 294.83 101.28 294.83 98.7604C294.83 97.6804 294.89 96.5804 294.95 95.5004C295 94.4804 295.07 93.4204 295.07 92.3904C295.07 90.9604 295.01 89.2004 294.6 87.8204C294.52 87.5604 294.24 86.7203 293.93 86.6103C293.9 86.6003 293.86 86.6004 293.83 86.6004C291.3 86.6004 289.24 88.6104 287.8 90.4804C285.64 93.2904 284.23 96.6903 283.26 100.08C283.2 101.15 283.09 102.22 282.96 103.28C282.84 104.3 282.76 105.33 282.76 106.36C282.76 107.3 282.87 108.3 282.96 109.23C283.06 110.27 283.16 111.35 283.16 112.4C283.16 113.71 282.75 114.92 281.83 115.86C280.91 116.8 279.73 117.24 278.43 117.24C277.11 117.24 275.92 116.81 275 115.85C274.08 114.9 273.69 113.7 273.69 112.39C273.69 111.46 273.58 110.47 273.48 109.54C273.36 108.5 273.25 107.41 273.25 106.37C273.25 103.16 273.48 99.8803 273.74 96.6803C273.99 93.5603 274.22 90.3604 274.22 87.2304C274.22 86.2004 274.17 85.1604 274.11 84.1304C274.05 83.0504 273.99 81.9504 273.99 80.8604C273.99 79.5404 274.43 78.3503 275.39 77.4303C276.32 76.5403 277.48 76.1104 278.77 76.1104C282.13 76.1104 283.43 78.8203 283.63 81.8103C283.63 81.8303 283.63 81.8503 283.63 81.8703L283.64 81.9803Z" fill="#E5005B"/>
<path fill-rule="evenodd" clip-rule="evenodd" d="M222.699 107.64L226.559 105.55C227.179 105.22 227.969 104.84 228.679 104.84C229.959 104.84 231.049 105.37 231.909 106.31C232.739 107.22 233.199 108.32 233.199 109.56C233.199 112.64 229.579 114.57 227.169 115.65C224.719 116.74 221.759 117.79 219.049 117.79C214.369 117.79 210.099 116.42 206.599 113.26C202.909 109.93 201.289 105.6 201.289 100.66C201.289 95.3201 203.249 90.3001 206.049 85.8201C208.869 81.3101 212.949 77.0801 218.639 77.0801C221.329 77.0801 224.019 77.7701 226.509 78.7201C229.189 79.7501 232.589 81.6001 232.589 84.9101C232.589 86.1101 232.189 87.2101 231.399 88.1201C230.579 89.0901 229.479 89.6201 228.199 89.6201C227.229 89.6201 226.339 89.3201 225.589 88.7101C225.109 88.3201 224.639 87.9401 224.209 87.5701C222.839 86.4901 220.299 86.3201 218.629 86.3201C216.279 86.3201 214.089 89.9201 213.129 91.6601C211.689 94.2801 210.249 97.6001 210.249 100.65C210.249 102.98 210.949 104.99 212.749 106.51C214.539 108.02 216.749 108.55 219.059 108.55C220.329 108.56 221.569 108.18 222.699 107.64Z" fill="#E4A7CB"/>
<path fill-rule="evenodd" clip-rule="evenodd" d="M131.64 80.2005C131.64 81.7505 134.36 82.4606 135.48 82.7206C136.29 82.9106 137.19 83.0106 138.02 83.1006C139.48 83.2606 140.94 83.3806 142.4 83.4906C147.21 83.8406 151.84 85.3005 155.34 88.7405C158.27 91.6205 159.74 95.1705 159.74 99.2805C159.74 105.381 156.76 109.981 151.7 113.251C146.98 116.301 141.66 117.611 136.07 117.611C131.96 117.611 127.96 116.861 124.22 115.131C120.33 113.331 117.14 110.451 117.04 105.911C117.01 104.581 117.48 103.391 118.47 102.491C119.43 101.631 120.59 101.221 121.88 101.221C123.67 101.221 125.02 102.321 125.97 103.751C126.61 104.711 127.63 106.151 128.61 106.801C130.65 108.161 133.7 108.431 136.08 108.431C139.23 108.431 142.25 107.771 145.06 106.341C147.84 104.931 149.95 102.891 149.95 99.6105C149.95 96.9805 148.16 95.3606 145.95 94.2206C143.09 92.7406 139.74 92.2106 136.55 92.1006C133.17 91.9906 129.82 91.2806 126.86 89.6006C123.37 87.6106 121.36 84.6105 121.36 80.5605C121.36 75.3605 124.71 71.4005 128.73 68.5005C132.96 65.4505 137.71 63.5605 142.96 63.5605C145.55 63.5605 148.19 64.0506 150.68 64.7206C153.1 65.3706 157.19 66.7206 157.19 69.8306C157.19 72.6406 155.5 74.2505 152.71 74.2505C151.17 74.2505 149.21 73.8105 147.7 73.4805C146.2 73.1505 144.37 72.7806 142.84 72.8006C139.96 72.8406 137.16 73.4806 134.76 75.1306C132.98 76.3606 131.64 77.9605 131.64 80.2005Z" fill="#A9D9E3"/>
<path d="M126.04 119.21H35.0098V221.52H126.04V119.21Z" fill="#AF91C3"/>
<path fill-rule="evenodd" clip-rule="evenodd" d="M174.75 116.57C204.98 116.57 229.48 143.26 229.48 176.19C229.48 209.12 204.98 235.81 174.75 235.81C144.52 235.81 120.02 209.12 120.02 176.19C120.02 143.26 144.52 116.57 174.75 116.57Z" fill="#FAE800"/>
<path fill-rule="evenodd" clip-rule="evenodd" d="M427.329 220.77L366.769 224.53L227.979 224.9L223.459 128.99L422.819 117.7L427.329 220.77Z" fill="#E7480B"/>
<path fill-rule="evenodd" clip-rule="evenodd" d="M54.9498 22.9102L0.259766 123.34L119.22 111.55L54.9498 22.9102Z" fill="#E5005C"/>
<path fill-rule="evenodd" clip-rule="evenodd" d="M210.32 163.1C208.36 158 205.55 153.45 202.05 149.49C198.51 145.51 194.44 142.17 189.8 139.93C185.28 137.74 180.45 136.78 175.52 136.78C170.6 136.78 165.81 137.75 161.28 139.93C156.64 142.17 152.55 145.5 149.03 149.5C145.54 153.45 142.78 158 140.83 163.09C138.94 168.04 137.99 173.24 137.99 178.62C137.99 184.05 138.94 189.3 140.82 194.31C142.75 199.43 145.52 203.98 149.03 207.94C152.54 211.91 156.61 215.21 161.23 217.42C165.77 219.59 170.58 220.54 175.51 220.54C180.46 220.54 185.32 219.59 189.88 217.42C194.5 215.22 198.54 211.91 202.04 207.94C205.53 203.98 208.36 199.45 210.31 194.35C212.23 189.33 213.18 184.08 213.18 178.63C213.2 173.24 212.22 168.04 210.32 163.1ZM176.55 206.3C165.71 206.3 156.93 193.02 156.93 176.63C156.93 160.24 165.72 146.96 176.55 146.96C187.39 146.96 196.17 160.24 196.17 176.63C196.18 193.02 187.39 206.3 176.55 206.3Z" fill="white"/>
<path fill-rule="evenodd" clip-rule="evenodd" d="M410.91 178.571C405.58 196.871 393.6 204.291 374.98 200.831L373.67 178.401C385 177.811 384.701 178.401 385.391 188.831L395.24 188.361L393.151 153.851L384.18 154.311C385.02 164.411 384.67 165.601 373.62 166.211C373.48 166.221 373.341 166.231 373.201 166.231L371.68 145.981L385.97 144.571C395.46 144.441 402.171 149.711 406.081 160.391L415.07 156.131L405.49 130.471L342.98 133.901L344.16 144.921L352.341 144.471L355.25 205.361L345.72 205.881L346.19 217.051L411.891 213.441L420.85 182.241L410.91 178.571Z" fill="white"/>
<path fill-rule="evenodd" clip-rule="evenodd" d="M249.99 153.79C249.65 150.54 240.75 150.81 240.75 150.81L240.32 139.26L274.82 137.23L289.28 187.32L301.46 135.89L335.07 134.04C335.36 138.05 335.65 142.06 335.94 146.07C335.94 146.07 327.71 144.77 326.73 149.43C327.23 169.06 329.02 185.15 329.51 204.78C329.55 207.39 340.25 205.86 340.25 205.86L340.7 217.17L303.19 219.55L302.91 207.91C302.91 207.91 311.25 208.98 311.32 205.41L309.05 149.33L294.91 220.34L284.17 221.39L263.29 155.23L264.22 207.14C264.26 207.9 264.43 209.73 265 210.31C265.48 210.79 267.04 210.78 267.64 210.75L274.97 210.35L276.06 220.86L244.64 222.47L244.19 211.8L250.81 211.44C251.42 211.41 252.05 211.28 252.43 210.75C252.95 210.02 252.99 208.76 252.94 207.9C251.95 189.86 250.97 171.83 249.99 153.79Z" fill="white"/>
<path fill-rule="evenodd" clip-rule="evenodd" d="M85.95 133.99H121.29V144.63H113.05V201.91H121.29V214.04H85.95V201.91H91.44C93.55 201.91 95.27 199.97 95.27 197.6V182.55C95.27 180.45 93.91 178.68 92.14 178.31H72.43C70.65 178.68 69.3 180.45 69.3 182.55V197.6C69.3 199.97 71.02 201.91 73.13 201.91H77.44V214.04H42.25V201.91H50.49V144.63H42.25V133.99H77.44V144.63H73.13C71.02 144.63 69.3 146.35 69.3 148.46V161.83C69.3 163.94 71.02 165.66 73.13 165.66H91.45C93.56 165.66 95.28 163.94 95.28 161.83V148.46C95.28 146.35 93.56 144.63 91.45 144.63H85.96V133.99H85.95Z" fill="white"/>
<path fill-rule="evenodd" clip-rule="evenodd" d="M406.089 93.3803C404.739 96.1503 396.009 93.6603 393.319 94.0903C390.519 100.07 387.639 109.98 391.269 117.08C396.019 126.36 431.609 139.92 424.679 101.92C424.339 100.04 424.109 97.6703 423.599 95.8103C423.069 93.8603 422.189 92.4903 422.229 90.5303C423.919 89.6003 427.649 89.1503 430.009 88.2003C436.919 85.4303 443.539 80.0703 446.999 73.2303C455.449 56.5403 449.959 23.1803 432.669 10.7003C424.329 4.68031 413.429 0.380307 400.329 2.95031C377.739 7.39031 363.859 25.2103 363.599 50.7903C363.389 71.7003 369.449 84.5703 387.739 90.6403C390.799 91.6503 393.049 92.0703 396.339 92.4303C398.999 92.7203 404.429 91.7903 406.089 93.3803Z" fill="#A9D9E3"/>
<path fill-rule="evenodd" clip-rule="evenodd" d="M380.03 89.1207C370.34 85.7407 365.7 73.3908 364.71 72.2708C361.95 73.8308 363.15 75.3508 359.22 76.1008C359.91 74.1208 360.06 74.0907 361.38 72.7807C365.48 68.7007 364.09 70.5307 362.7 63.6407C361.58 58.0407 362.04 52.0507 361.92 46.1107C359.83 46.0307 355.66 46.8007 354.51 45.2207C355.86 43.0607 358.11 45.1708 362.41 43.9408C363.35 33.3007 366.26 29.7207 366.65 26.5607C359.24 22.7207 343.19 15.0607 336.69 26.2907C331.77 34.7907 334.7 53.8807 337.48 62.7907C341.35 75.2107 351.8 96.3807 366.22 97.0907C371.12 97.3407 379.05 94.2007 380.03 89.1207Z" fill="#A9D9E3"/>
<path fill-rule="evenodd" clip-rule="evenodd" d="M477.989 36.3608C471.749 29.3908 457.879 24.5908 448.079 26.6008C447.129 28.5808 449.219 32.2308 450.309 36.5608C451.249 40.2608 451.459 44.0808 452.209 47.9108C457.719 48.7808 459.559 46.8108 460.699 49.5508L452.509 49.9307C451.829 56.8207 452.879 60.9208 450.789 67.8908C450.319 69.4408 448.389 73.6608 448.739 74.8208C449.389 76.9808 452.159 78.2108 452.469 81.3108C448.839 80.8108 450.579 78.7908 447.309 76.5808C444.839 78.7108 444.009 81.4307 438.729 85.3307C436.869 86.7107 435.699 87.5907 433.389 88.6507C431.579 89.4907 428.679 90.1808 427.439 91.3508C430.789 96.2908 440.449 97.0808 447.139 95.1708C459.199 91.7208 474.059 76.8008 479.189 65.4608C480.559 62.4208 481.419 59.1108 482.629 56.2008C482.639 56.2108 485.589 44.8608 477.989 36.3608Z" fill="#A9D9E3"/>
<path fill-rule="evenodd" clip-rule="evenodd" d="M482.83 40.7803C475.02 25.8103 460.4 24.7003 446.31 24.7203C441.52 19.0203 443.29 16.3503 431.86 7.95032C410.78 -7.53968 377.95 3.07033 367.99 24.6103C363.35 24.0003 359.17 20.4403 353.2 19.2503C327.94 14.2003 330.59 42.6503 336.18 62.5903C337.57 67.5703 339.15 72.0203 340.53 75.2803C341.4 77.3503 342.53 79.5103 343.86 81.6503C351.37 93.7403 365.41 105.1 377.63 95.1503C379.85 93.3503 380.39 91.7603 381.94 90.4803C382.63 90.6203 390.37 93.3303 390.86 93.5703C391.44 95.4603 388.96 101.99 388.02 103.11C387.84 103.01 378.43 95.2903 376.04 104.29C374.49 110.12 377.29 115.96 380.5 119.17C381.24 119.47 381.75 119.77 382.24 120C383.06 120.39 383.79 120.6 385.44 120.41C386.39 120.3 387.13 119.99 387.84 119.68C388.68 119.32 389.48 118.95 390.56 118.89C390.71 119.1 390.86 119.3 391.01 119.5C401.78 133.71 420.48 127.02 420.48 127.02C421.03 127.03 422.3 127.66 423.29 128.28C423.74 128.55 424.13 128.82 424.37 129.02C437.48 130.43 438.96 111.08 431.97 109.31C429.85 108.77 428.88 109.58 427.44 108.59C428.43 107.39 430.47 106.81 431.93 107.21C434.11 107.8 433.29 109.23 436.99 107.85C438.49 105.09 437.96 100.48 433.76 101.9C430.52 103 434.35 105.63 426.93 106.21L424.56 92.1003C427.13 92.8803 429.05 95.5803 432.77 96.8603C454.5 104.34 479.29 74.4503 482.86 60.8503C484.62 54.6703 485.58 50.1503 482.83 40.7803ZM366.21 97.1003C357 96.6503 349.41 87.8403 344.12 78.3003C341.13 72.9103 338.87 67.2903 337.48 62.8103C337.3 62.2403 337.12 61.6303 336.95 60.9803C334.36 51.5003 332.09 34.2703 336.69 26.3003C343.2 15.0703 359.24 22.7203 366.65 26.5603C366.26 29.7203 363.34 33.3103 362.41 43.9403C358.1 45.1703 355.86 43.0503 354.51 45.2203C355.67 46.8103 359.83 46.0403 361.92 46.1103C362.04 52.0403 361.58 58.0403 362.7 63.6403C364.09 70.5303 365.48 68.7003 361.38 72.7803C360.07 74.0903 359.91 74.1203 359.22 76.1103C363.15 75.3603 361.95 73.8403 364.71 72.2803C365.7 73.4003 370.34 85.7403 380.03 89.1303C379.05 94.1903 371.12 97.3403 366.21 97.1003ZM378.02 103.58C380.2 99.6903 384.77 102.55 386.89 104.66C388.8 106.56 387.93 107.78 387.99 110.63C388.04 113.42 388.81 114.99 389.04 117.21C380.71 123.89 374.95 109.07 378.02 103.58ZM427.42 111.42C433.96 108.01 435.2 115.93 433.72 120.8C432.61 124.44 427.6 130.53 423.19 126.21C423.06 126.09 422.94 125.96 422.81 125.82C422.86 125.43 422.97 125.07 423.12 124.7C423.78 123.1 425.24 121.63 425.97 119.69C427.12 116.6 426.76 114.55 427.42 111.42ZM423.59 95.8103C424.1 97.6803 424.33 100.04 424.67 101.93C426.41 111.49 425.46 117.79 422.99 121.71C416.43 132.1 399.17 125.8 392.99 119.39C392.24 118.61 391.65 117.83 391.27 117.08C387.64 109.98 390.53 100.06 393.32 94.0803C396.01 93.6503 404.74 96.1403 406.09 93.3703C404.43 91.7803 399.01 92.7203 396.34 92.4203C393.05 92.0603 390.8 91.6503 387.74 90.6403C369.45 84.5703 363.39 71.6903 363.6 50.7903C363.86 25.2103 377.74 7.39032 400.33 2.95032C413.42 0.380324 424.33 4.68032 432.67 10.7003C449.95 23.1803 455.44 56.5403 446.99 73.2303C443.52 80.0703 436.91 85.4303 430 88.2003C427.64 89.1503 423.91 89.6003 422.22 90.5303C422.18 92.4903 423.06 93.8603 423.59 95.8103ZM480.11 63.2303C479.98 63.5703 479.85 63.9203 479.71 64.2503C479.54 64.6703 479.37 65.0703 479.19 65.4703C474.06 76.8103 459.2 91.7303 447.14 95.1703C440.46 97.0803 430.8 96.2903 427.44 91.3503C428.68 90.1903 431.58 89.4903 433.4 88.6603C435.71 87.5903 436.87 86.7103 438.73 85.3303C444.02 81.4303 444.85 78.7003 447.31 76.5803C450.57 78.8003 448.84 80.8103 452.47 81.3103C452.15 78.2103 449.39 76.9803 448.74 74.8303C448.39 73.6703 450.32 69.4603 450.79 67.9003C452.88 60.9203 451.82 56.8303 452.51 49.9403L460.7 49.5503C459.55 46.8103 457.71 48.7903 452.2 47.9103C451.46 44.0803 451.24 40.2603 450.31 36.5603C449.21 32.2303 447.13 28.5803 448.07 26.6003C457.88 24.5903 471.75 29.3903 477.99 36.3603C484.07 43.1703 483.28 54.4303 480.28 62.7803C480.23 62.9303 480.18 63.0803 480.11 63.2303Z" fill="#1A1A18"/>
<path fill-rule="evenodd" clip-rule="evenodd" d="M415.689 38.3801C413.309 38.0801 408.019 37.5301 407.539 39.7301C407.109 41.6901 407.059 46.5701 406.689 49.1601C405.489 57.4701 404.679 59.4401 400.289 63.4801C401.059 67.7301 406.519 82.5101 411.339 81.2801C415.489 80.2201 414.289 68.4801 414.869 65.5601C415.149 64.1501 416.249 62.6001 416.769 60.8601C418.459 55.1501 418.559 43.0201 415.689 38.3801ZM416.089 52.8301C413.929 54.3101 414.719 52.2101 413.119 54.3501C413.939 57.2201 413.439 54.9601 415.759 56.3801C415.679 59.8101 414.599 62.2601 413.039 64.7201L403.579 63.4601L405.239 60.6201C405.789 60.5601 407.049 60.5401 407.249 60.5001L408.929 59.9301C408.359 56.5001 408.609 59.7101 406.669 57.3801L408.089 50.0101L411.359 49.4101C411.109 46.5201 411.069 47.9101 408.889 46.7501C408.879 44.7501 408.499 41.0201 409.979 40.4001C410.349 40.2401 412.889 40.1401 413.329 40.2101C415.229 40.5101 414.549 40.1801 415.279 41.6801C414.039 44.4501 413.599 40.4501 412.659 44.2101C412.899 44.5701 412.969 44.7301 412.979 44.7901C412.979 44.7401 413.069 44.7001 413.559 44.9701L416.079 45.6201L416.089 52.8301Z" fill="#1A1A18"/>
<path fill-rule="evenodd" clip-rule="evenodd" d="M408.91 46.74C411.08 47.89 411.13 46.4999 411.37 49.3999L408.1 50L406.68 57.38C408.61 59.7 408.37 56.4899 408.93 59.9299L407.26 60.5099C407.05 60.5499 405.79 60.57 405.24 60.63L403.58 63.47L413.03 64.7299C414.59 62.2699 415.66 59.82 415.75 56.39C413.43 54.97 413.92 57.23 413.11 54.36C414.7 52.23 413.92 54.3199 416.08 52.8399L416.1 45.63L413.58 44.9799C412.43 44.3599 413.47 45.44 412.67 44.22C413.61 40.45 414.05 44.46 415.29 41.69C414.56 40.18 415.24 40.52 413.34 40.22C412.91 40.15 410.37 40.25 409.99 40.41C408.53 41.01 408.9 44.74 408.91 46.74Z" fill="#A3D5DF"/>
<path fill-rule="evenodd" clip-rule="evenodd" d="M389.04 117.2C388.81 114.98 388.05 113.42 387.99 110.63C387.93 107.78 388.8 106.56 386.89 104.66C384.77 102.55 380.2 99.69 378.02 103.58C374.96 109.07 380.7 123.89 389.04 117.2Z" fill="#A9D9E3"/>
<path fill-rule="evenodd" clip-rule="evenodd" d="M422.811 125.82C427.311 130.88 432.581 124.55 433.721 120.81C435.201 115.94 433.961 108.02 427.431 111.42C426.761 114.55 427.121 116.6 425.971 119.69C425.081 122.08 423.071 123.76 422.811 125.82Z" fill="#A9D9E3"/>
<path fill-rule="evenodd" clip-rule="evenodd" d="M434.929 32.75C435.739 32.75 436.399 34.29 436.399 36.18C436.399 38.08 435.739 39.61 434.929 39.61C434.119 39.61 433.459 38.07 433.459 36.18C433.459 34.28 434.119 32.75 434.929 32.75Z" fill="#1A1A18"/>
<path fill-rule="evenodd" clip-rule="evenodd" d="M387.159 40.21C387.969 40.21 388.629 41.75 388.629 43.64C388.629 45.54 387.969 47.07 387.159 47.07C386.349 47.07 385.689 45.53 385.689 43.64C385.689 41.75 386.349 40.21 387.159 40.21Z" fill="#1A1A18"/>
<path fill-rule="evenodd" clip-rule="evenodd" d="M376.04 62.1802C379.94 61.6402 383.42 63.5502 383.82 66.4502C384.22 69.3502 381.38 72.1302 377.48 72.6702C373.58 73.2102 370.1 71.3002 369.7 68.4002C369.3 65.5002 372.14 62.7202 376.04 62.1802Z" fill="#F4B3D1"/>
<path fill-rule="evenodd" clip-rule="evenodd" d="M441.77 50.8599C445.67 50.3199 449.15 52.2299 449.55 55.1299C449.95 58.0299 447.11 60.8099 443.21 61.3499C439.31 61.8899 435.83 59.9799 435.43 57.0799C435.03 54.1799 437.87 51.3999 441.77 50.8599Z" fill="#F4B3D1"/>
</g>
<defs>
<clipPath id="clip0_494_201">
<rect width="485" height="296" fill="white"/>
</clipPath>
</defs>
</svg>
