<svg width="206" height="200" viewBox="0 0 206 200" fill="none" xmlns="http://www.w3.org/2000/svg">
<g clip-path="url(#clip0_494_474)">
<path d="M100.21 199.71C153.295 199.71 196.33 156.675 196.33 103.59C196.33 50.5041 153.295 7.46973 100.21 7.46973C47.1242 7.46973 4.08984 50.5041 4.08984 103.59C4.08984 156.675 47.1242 199.71 100.21 199.71Z" fill="#FC95A7"/>
<path d="M2.42911 133.86L108.089 25.21L158.669 146.78L7.80911 146.6C4.42911 146.6 1.46911 144.33 0.56911 141.07C-0.13089 138.51 0.569111 135.77 2.42911 133.86Z" fill="#F6C9C9"/>
<path d="M155.238 76.9202C169.208 110.49 170.738 141.77 158.658 146.79C146.578 151.81 125.468 128.66 111.498 95.0902C97.5284 61.5202 95.9984 30.2402 108.078 25.2202C120.158 20.2002 141.268 43.3502 155.238 76.9202Z" fill="url(#paint0_radial_494_474)"/>
<path d="M101.418 32.98C105.408 24.14 111.658 22.95 118.168 26.26C126.018 30.26 138.418 41.62 150.708 66.89C150.708 66.89 121.328 28.5999 100.618 37.5399C100.608 37.5299 100.118 35.87 101.418 32.98Z" fill="#E0A9A9"/>
<path d="M87.0693 109.45C101.809 104.71 118.059 110.08 126.739 122.9C135.499 135.84 147.529 149.21 158.659 146.79L7.7993 146.61C7.7993 146.61 5.7293 146.94 3.6693 145.33C1.7393 143.83 0.529297 137.27 0.529297 137.27L87.0693 109.45Z" fill="#E7A0A0"/>
<path opacity="0.4" d="M157.53 147.26C145.46 152.26 124.34 129.13 110.37 95.5401C96.4099 61.9801 94.8799 30.7002 106.95 25.6802C119.02 20.6602 140.14 43.8102 154.1 77.3702C168.07 110.96 169.59 142.24 157.53 147.26Z" fill="#B88282"/>
<path d="M0.568359 141.07L148.098 144.9L151.258 146.92L6.48836 146.56C6.47836 146.56 0.598359 144.88 0.568359 141.07Z" fill="#B88282"/>
<path d="M134.929 26.7C134.179 26.94 133.349 26.95 132.539 26.69C130.459 26.02 129.319 23.8 129.989 21.72L135.989 3.03001C136.659 0.950011 138.879 -0.189985 140.959 0.480015C143.039 1.15002 144.179 3.37001 143.509 5.45001L137.509 24.14C137.099 25.41 136.109 26.33 134.929 26.7Z" fill="#B88282"/>
<path d="M164.498 50.3802C163.068 50.8302 161.448 50.4502 160.378 49.2702C158.908 47.6502 159.038 45.1502 160.648 43.6902L175.188 30.5102C176.808 29.0402 179.308 29.1702 180.768 30.7802C182.238 32.4002 182.108 34.9002 180.498 36.3602L165.958 49.5402C165.528 49.9402 165.028 50.2202 164.498 50.3802Z" fill="#B88282"/>
<path d="M198.258 73.4897C198.138 73.5297 198.028 73.5597 197.898 73.5797L178.708 77.7197C176.578 78.1797 174.468 76.8297 174.008 74.6897C173.548 72.5597 174.888 70.4597 177.038 69.9897L196.228 65.8497C198.358 65.3897 200.468 66.7397 200.928 68.8797C201.358 70.8897 200.178 72.8797 198.258 73.4897Z" fill="#B88282"/>
<path d="M202.929 114.09C202.179 114.33 201.349 114.34 200.539 114.08L181.849 108.08C179.769 107.41 178.629 105.19 179.299 103.11C179.969 101.03 182.189 99.8901 184.269 100.56L202.959 106.56C205.039 107.23 206.179 109.45 205.509 111.53C205.099 112.8 204.109 113.72 202.929 114.09Z" fill="#B88282"/>
<path d="M196.159 156.7C194.729 157.15 193.109 156.77 192.039 155.59L178.859 141.05C177.389 139.43 177.519 136.93 179.129 135.47C180.749 134 183.249 134.13 184.709 135.74L197.889 150.28C199.359 151.9 199.229 154.4 197.619 155.86C197.189 156.26 196.689 156.54 196.159 156.7Z" fill="#B88282"/>
<path d="M101.26 88.9768C102.75 82.2416 98.498 75.5737 91.7628 74.0837C85.0276 72.5938 78.3597 76.8459 76.8697 83.5811C75.3797 90.3164 79.6319 96.9842 86.3671 98.4742C93.1024 99.9642 99.7702 95.7121 101.26 88.9768Z" fill="#FFFFF8"/>
<path d="M89.0598 90.8305C91.5727 90.8305 93.6098 88.7934 93.6098 86.2805C93.6098 83.7676 91.5727 81.7305 89.0598 81.7305C86.5469 81.7305 84.5098 83.7676 84.5098 86.2805C84.5098 88.7934 86.5469 90.8305 89.0598 90.8305Z" fill="#11495F"/>
<path opacity="0.41" d="M158.92 146.14L8.05961 145.96C4.64961 145.94 1.70961 143.69 0.81961 140.42C0.11961 137.85 0.82961 135.12 2.67961 133.19L108.34 24.5498L158.92 146.14Z" fill="#B88282"/>
<path d="M85.0089 78.98C82.4089 79.8 80.4889 81.77 79.6289 84.15C78.7289 83.58 78.6889 82.4201 78.6889 82.4101C78.6789 82.1501 78.4689 81.94 78.1989 81.95C77.9389 81.96 77.7289 82.1701 77.7389 82.4401C77.7389 82.6201 77.8189 84.21 79.2089 85.01C79.2589 85.04 79.2989 85.06 79.3489 85.09C79.2889 85.35 79.2389 85.6201 79.2089 85.8801C79.0289 85.9301 78.8389 85.9501 78.6189 85.9401C77.5189 85.8801 76.9389 84.8201 76.9289 84.8001C76.8089 84.5701 76.5189 84.48 76.2889 84.61C76.0589 84.73 75.9689 85.02 76.0989 85.25C76.1789 85.41 76.9689 86.7901 78.5689 86.8801C78.7689 86.8901 78.9589 86.8801 79.1389 86.8501C79.1289 87.7201 79.2489 88.6101 79.5289 89.4901C80.9189 93.9101 85.6289 96.36 90.0489 94.97C94.4689 93.58 96.9189 88.87 95.5289 84.45C94.1389 80.03 89.4189 77.59 85.0089 78.98Z" fill="#414151"/>
<path d="M86.8696 85.1403C87.4996 83.9303 88.9896 83.4603 90.1996 84.0903C91.4096 84.7203 91.8796 86.2103 91.2496 87.4203C90.6196 88.6303 89.1296 89.1003 87.9196 88.4703C86.7096 87.8403 86.2396 86.3503 86.8696 85.1403Z" fill="white"/>
<path d="M85.6592 90.0406C85.9892 89.4206 86.7592 89.1706 87.3792 89.5006C87.9992 89.8306 88.2492 90.6006 87.9192 91.2206C87.5892 91.8406 86.8192 92.0906 86.1992 91.7606C85.5792 91.4406 85.3392 90.6706 85.6592 90.0406Z" fill="white"/>
</g>
<defs>
<radialGradient id="paint0_radial_494_474" cx="0" cy="0" r="1" gradientUnits="userSpaceOnUse" gradientTransform="translate(132.381 87.3096) rotate(-111.032) scale(65.1905 22.1668)">
<stop stop-color="#B88282"/>
<stop offset="1" stop-color="#D08484"/>
</radialGradient>
<clipPath id="clip0_494_474">
<rect width="206" height="200" fill="white"/>
</clipPath>
</defs>
</svg>
