<svg width="193" height="194" viewBox="0 0 193 194" fill="none" xmlns="http://www.w3.org/2000/svg">
<g clip-path="url(#clip0_494_384)">
<path d="M96.4696 193.18C149.555 193.18 192.59 150.146 192.59 97.0604C192.59 43.9748 149.555 0.94043 96.4696 0.94043C43.384 0.94043 0.349609 43.9748 0.349609 97.0604C0.349609 150.146 43.384 193.18 96.4696 193.18Z" fill="#FC95A7"/>
<path d="M28.5293 180.11L37.5493 16.8504C37.5493 16.8504 40.8293 5.36035 57.2393 5.36035C73.6493 5.36035 167.169 5.36035 167.169 5.36035L168.539 180.11H28.5293Z" fill="url(#paint0_linear_494_384)"/>
<path d="M28.5293 180.11L37.5493 16.8504C37.5493 16.8504 40.8293 5.36035 57.2393 5.36035C73.6493 5.36035 167.169 5.36035 167.169 5.36035L168.539 180.11H28.5293Z" fill="#307893"/>
<path d="M164.359 130.884C165.58 120.835 158.423 111.698 148.373 110.477C138.324 109.257 129.187 116.414 127.966 126.463C126.746 136.512 133.903 145.649 143.952 146.87C154.002 148.091 163.138 140.934 164.359 130.884Z" fill="#FFFFF8"/>
<path d="M79.3881 105.17C80.609 95.1208 73.452 85.9844 63.4025 84.7635C53.3531 83.5426 44.2166 90.6996 42.9958 100.749C41.7749 110.799 48.9319 119.935 58.9813 121.156C69.0308 122.377 78.1673 115.22 79.3881 105.17Z" fill="white"/>
<path d="M59.5 50.9003V79.2003C59.5 86.6803 65.56 92.7404 73.04 92.7404H134.57C142.05 92.7404 148.11 86.6803 148.11 79.2003V50.9003C148.11 43.4203 142.05 37.3604 134.57 37.3604H73.04C65.56 37.3604 59.5 43.4203 59.5 50.9003Z" fill="#FFFFF8"/>
<path d="M76.9596 135.86C75.8296 135.24 120.84 151.11 120.84 151.11C120.84 151.11 111.32 169.49 90.9796 162.41C70.6396 155.33 76.9596 135.86 76.9596 135.86Z" fill="#FFFEF6"/>
<path d="M181.67 180.11L171.01 13.1602H167.24L168.55 180.11H181.67Z" fill="#FBF2E1"/>
<path d="M74.4792 95.9003C71.4092 93.5303 67.5592 92.8903 64.0792 93.8303C64.0092 92.3203 65.3292 91.3403 65.3392 91.3303C65.6392 91.1103 65.6992 90.6903 65.4792 90.3903C65.2592 90.0903 64.8392 90.0303 64.5392 90.2503C64.3392 90.4003 62.5492 91.7903 62.7392 94.0503C62.7492 94.1303 62.7592 94.2003 62.7692 94.2803C62.4192 94.4203 62.0692 94.5803 61.7292 94.7503C61.5292 94.5803 61.3392 94.3703 61.1792 94.1103C60.3592 92.7803 61.1292 91.2403 61.1292 91.2203C61.2992 90.8903 61.1692 90.4803 60.8392 90.3103C60.5092 90.1403 60.0992 90.2703 59.9292 90.6003C59.8092 90.8303 58.8392 92.8703 60.0292 94.8003C60.1792 95.0503 60.3492 95.2603 60.5292 95.4503C59.4992 96.1403 58.5692 97.0103 57.7692 98.0403C53.7492 103.25 54.7092 110.73 59.9192 114.75C65.1292 118.77 72.6092 117.81 76.6292 112.6C80.6492 107.41 79.6792 99.9303 74.4792 95.9003Z" fill="#414151"/>
<path d="M68.8196 103.08C70.7396 102.83 72.4996 104.19 72.7396 106.11C72.9896 108.03 71.6296 109.79 69.7096 110.03C67.7896 110.28 66.0296 108.92 65.7896 107C65.5396 105.09 66.8896 103.33 68.8196 103.08Z" fill="white"/>
<path d="M62.1187 105.65C63.1087 105.52 64.0187 106.22 64.1487 107.22C64.2787 108.21 63.5787 109.12 62.5787 109.25C61.5887 109.38 60.6787 108.68 60.5487 107.68C60.4187 106.69 61.1187 105.78 62.1187 105.65Z" fill="white"/>
<path d="M130.99 118.37C134.06 116 137.91 115.36 141.39 116.3C141.46 114.79 140.14 113.81 140.13 113.8C139.83 113.58 139.77 113.16 139.99 112.86C140.21 112.56 140.63 112.5 140.93 112.72C141.13 112.87 142.92 114.26 142.73 116.52C142.72 116.6 142.71 116.67 142.7 116.75C143.05 116.89 143.4 117.05 143.74 117.22C143.94 117.05 144.13 116.84 144.29 116.58C145.11 115.25 144.34 113.71 144.34 113.69C144.17 113.36 144.3 112.95 144.63 112.78C144.96 112.61 145.37 112.74 145.54 113.07C145.66 113.3 146.63 115.34 145.44 117.27C145.29 117.52 145.12 117.73 144.94 117.92C145.97 118.61 146.9 119.48 147.7 120.51C151.72 125.72 150.76 133.2 145.55 137.22C140.34 141.24 132.86 140.28 128.84 135.07C124.82 129.87 125.78 122.39 130.99 118.37Z" fill="#414151"/>
<path d="M136.649 125.55C134.729 125.3 132.969 126.66 132.729 128.58C132.479 130.5 133.839 132.26 135.759 132.5C137.679 132.75 139.439 131.39 139.679 129.47C139.929 127.55 138.569 125.8 136.649 125.55Z" fill="white"/>
<path d="M143.348 128.12C142.358 127.99 141.448 128.69 141.318 129.69C141.188 130.68 141.888 131.59 142.888 131.72C143.878 131.85 144.788 131.15 144.918 130.15C145.038 129.15 144.338 128.25 143.348 128.12Z" fill="white"/>
</g>
<defs>
<linearGradient id="paint0_linear_494_384" x1="65.0517" y1="79.95" x2="161.859" y2="117.688" gradientUnits="userSpaceOnUse">
<stop stop-color="#5FCBF2"/>
<stop offset="1" stop-color="#4C9AB6"/>
</linearGradient>
<clipPath id="clip0_494_384">
<rect width="193" height="194" fill="white"/>
</clipPath>
</defs>
</svg>
